<?xml version="1.0" standalone="no"?>
<!DOCTYPE svg PUBLIC "-//W3C//DTD SVG 1.1//EN" "http://www.w3.org/Graphics/SVG/1.1/DTD/svg11.dtd" >
<svg xmlns="http://www.w3.org/2000/svg">
<metadata></metadata>
<defs>
<font id="nilexregular" horiz-adv-x="2048" >
<font-face units-per-em="2048" ascent="1536" descent="-512" />
<missing-glyph horiz-adv-x="1024" />
<glyph horiz-adv-x="0" />
<glyph horiz-adv-x="0" />
<glyph unicode="&#xd;" horiz-adv-x="1024" />
<glyph unicode=" "  horiz-adv-x="1024" />
<glyph unicode="&#x09;" horiz-adv-x="1024" />
<glyph unicode="&#xa0;" horiz-adv-x="1024" />
<glyph unicode="!" d="M86 33v213q0 57 43 107.5t109.5 84.5t147.5 59t157.5 36.5t138.5 11.5t138.5 -11.5t158 -36.5t148.5 -59t110 -84.5t43 -107.5v-213h-1194zM426 973q0 106 75 181t181 75t181 -75t75 -181q0 -107 -75 -181.5t-181 -74.5t-181 74.5t-75 181.5zM1110 973q0 106 74.5 181 t181.5 75q106 0 180 -75t74 -181q0 -107 -74 -181.5t-180 -74.5q-107 0 -181.5 74.5t-74.5 181.5zM1282 541q62 4 84 4q62 0 138.5 -11.5t157.5 -36.5t147.5 -59t109.5 -84.5t43 -107.5v-213h-512v213q0 174 -168 295z" />
<glyph unicode="&#x22;" d="M80 12v1024h340v-1024h-340zM592 182v854q0 72 49 121l561 561l92 -88q40 -43 37 -92l-2 -27l-82 -389h539q70 0 120 -50.5t50 -121.5v-6v-164q0 -34 -12 -61l-256 -602q-21 -47 -63 -76t-95 -29h-768q-70 0 -120 50t-50 120z" />
<glyph unicode="#" d="M168 102v172h598q0 35 25.5 60.5t60.5 25.5h86v170h-512q-70 0 -120 50t-50 120v342q0 70 50 120t120 50h854h170h172q69 0 119.5 -50t50.5 -120v-342q0 -70 -50.5 -120t-119.5 -50h-512v-170h86q35 0 59.5 -25.5t24.5 -60.5h600v-172h-600q0 -35 -24.5 -60.5 t-59.5 -25.5h-344q-35 0 -60.5 25.5t-25.5 60.5h-598zM512 786h170v170h-170v-170zM811 786h170v170h-170v-170zM1450 786h172v170h-172v-170z" />
<glyph unicode="$" d="M86 971q128 128 283 215.5t318.5 130t336.5 42.5t336.5 -42.5t318.5 -130t283 -215.5l-170 -170q-156 156 -359 237.5t-409 81.5t-409 -81.5t-359 -237.5zM426 629q122 122 280.5 185t318.5 63t317.5 -63t279.5 -185l-172 -170q-116 116 -271 157.5t-310 0t-271 -157.5z M768 289q106 106 256 106t256 -106l-256 -256z" />
<glyph unicode="%" d="M213 -156v1536q0 70 49.5 120t120.5 50h1024q71 0 120.5 -50t49.5 -120v-86h-170h-1024v-1364h342v-256h-342q-70 0 -120 50.5t-50 119.5zM895 -199v1194q0 54 38 91.5t91 37.5h682q53 0 91 -37.5t38 -91.5v-1194q0 -54 -38 -91.5t-91 -37.5h-682q-53 0 -91 37.5 t-38 91.5zM1067 -70h596v936h-596v-936z" />
<glyph unicode="&#x26;" d="M86 442v682q0 36 25 61t61 25h1022q35 0 60.5 -25.5t25.5 -60.5v-682q0 -35 -25.5 -60.5t-60.5 -25.5h-426v-168h170v-172h-170h-170h-172v172h172v168h-426q-36 0 -61 25t-25 61zM254 526h856v514h-856v-514zM1452 100v779q0 35 24.5 59.5t59.5 24.5h340 q35 0 60.5 -24.5t25.5 -59.5v-779q0 -35 -25.5 -59.5t-60.5 -24.5h-340q-35 0 -59.5 24.5t-24.5 59.5zM1536 692h340v88h-340v-88zM1651 432q0 -23 16 -39t39 -16q25 0 41 16t16 39q0 25 -16 41t-41 16q-23 0 -39 -16t-16 -41z" />
<glyph unicode="'" d="M84 -88v1063q0 54 38 92.5t93 38.5h424v217q0 53 36.5 89t88.5 36h520q51 0 87 -36.5t36 -88.5v-217h426q54 0 92.5 -38.5t38.5 -92.5v-1063q0 -54 -38.5 -92.5t-92.5 -38.5h-1618q-55 0 -93 38.5t-38 92.5zM168 -88q0 -19 13.5 -32t33.5 -13h1618q19 0 32 13t13 32v1063 q0 19 -13 32t-32 13h-426h-84h-598h-86h-424q-20 0 -33.5 -13t-13.5 -32v-1063zM725 1106h598v217q0 17 -11.5 28t-27.5 11h-520q-17 0 -28 -11t-11 -28v-217zM784 836h480l-160 -160l119 -438l-199 -199l-201 199l121 438z" />
<glyph unicode="(" d="M340 -197v1624q0 53 37 90t90 37h1112q53 0 90 -37t37 -90v-1624q0 -54 -37 -91.5t-90 -37.5h-1112q-53 0 -90 37.5t-37 91.5zM426 -197q0 -19 12 -31t29 -12h1112q18 0 30.5 12.5t12.5 30.5v1624q0 17 -13 30t-30 13h-1112q-17 0 -29 -13t-12 -30v-1624zM551 188 q0 54 37.5 91.5t91.5 37.5t91.5 -37.5t37.5 -91.5t-37.5 -92.5t-91.5 -38.5t-91.5 38.5t-37.5 92.5zM551 530q0 53 37.5 91t91.5 38t91.5 -38t37.5 -91q0 -54 -37.5 -92.5t-91.5 -38.5t-91.5 38.5t-37.5 92.5zM551 870q0 54 37.5 92.5t91.5 38.5t91.5 -38.5t37.5 -92.5 q0 -53 -37.5 -91t-91.5 -38t-91.5 38t-37.5 91zM614 188q0 -28 19 -46.5t47 -18.5t46.5 18.5t18.5 46.5q0 27 -19 46.5t-46 19.5t-46.5 -19.5t-19.5 -46.5zM614 530q0 -28 19 -46.5t47 -18.5t46.5 18.5t18.5 46.5q0 27 -19 46.5t-46 19.5t-46.5 -19.5t-19.5 -46.5zM614 870 q0 -26 19 -44.5t47 -18.5t46.5 18.5t18.5 44.5q0 28 -18.5 47t-46.5 19t-47 -19t-19 -47zM893 188q0 54 37.5 91.5t91.5 37.5t91.5 -37.5t37.5 -91.5t-37.5 -92.5t-91.5 -38.5t-91.5 38.5t-37.5 92.5zM893 530q0 53 37.5 91t91.5 38t91.5 -38t37.5 -91q0 -54 -37.5 -92.5 t-91.5 -38.5t-91.5 38.5t-37.5 92.5zM893 870q0 54 37.5 92.5t91.5 38.5t91.5 -38.5t37.5 -92.5q0 -53 -37.5 -91t-91.5 -38t-91.5 38t-37.5 91zM956 188q0 -28 19 -46.5t47 -18.5t46.5 18.5t18.5 46.5q0 27 -19 46.5t-46 19.5t-46.5 -19.5t-19.5 -46.5zM956 530 q0 -28 19 -46.5t47 -18.5t46.5 18.5t18.5 46.5q0 27 -19 46.5t-46 19.5t-46.5 -19.5t-19.5 -46.5zM956 870q0 -26 19 -44.5t47 -18.5t46.5 18.5t18.5 44.5q0 28 -18.5 47t-46.5 19t-47 -19t-19 -47zM1235 188q0 54 37.5 91.5t91.5 37.5t91.5 -37.5t37.5 -91.5t-37.5 -92.5 t-91.5 -38.5t-91.5 38.5t-37.5 92.5zM1235 530q0 53 37.5 91t91.5 38t91.5 -38t37.5 -91q0 -54 -37.5 -92.5t-91.5 -38.5t-91.5 38.5t-37.5 92.5zM1235 870q0 54 37.5 92.5t91.5 38.5t91.5 -38.5t37.5 -92.5q0 -53 -37.5 -91t-91.5 -38t-91.5 38t-37.5 91zM1235 1212 q0 54 37.5 92.5t91.5 38.5t91.5 -38.5t37.5 -92.5t-37.5 -91.5t-91.5 -37.5t-91.5 37.5t-37.5 91.5zM1298 188q0 -28 19 -46.5t47 -18.5q27 0 46.5 19t19.5 46q0 26 -20 46t-46 20q-27 0 -46.5 -19.5t-19.5 -46.5zM1298 530q0 -28 19 -46.5t47 -18.5q27 0 46.5 19t19.5 46 q0 26 -20 46t-46 20q-27 0 -46.5 -19.5t-19.5 -46.5zM1298 870q0 -26 19 -44.5t47 -18.5q27 0 46.5 18.5t19.5 44.5q0 27 -19.5 46.5t-46.5 19.5q-28 0 -47 -19t-19 -47zM1298 1212q0 -26 19 -45.5t47 -19.5q26 0 46 19.5t20 45.5q0 27 -19.5 46.5t-46.5 19.5q-28 0 -47 -19 t-19 -47z" />
<glyph unicode=")" d="M213 236v759q0 42 21 78.5t57 56.5l657 379q34 21 76 21q44 0 78 -21l655 -379q37 -20 57.5 -56t20.5 -79v-759q0 -41 -20.5 -77.5t-55.5 -58.5l-655 -379q-36 -20 -78 -20q-45 0 -78 20l-657 379q-36 22 -57 58.5t-21 77.5zM297 236q0 -41 37 -60l647 -375v785l-684 393 v-743zM336 1059l696 -402l688 398q-1 0 -2 1t-2 1l-655 379q-16 8 -35 8q-22 0 -35 -8zM1067 -201l649 377q35 21 35 60v735l-684 -396v-776z" />
<glyph unicode="*" d="M184 -10q0 89 63 152t152 63q60 0 111 -31l272 272q-57 75 -57 175q0 98 59 176l-264 264q-56 -37 -121 -37q-89 0 -152 63t-63 152t63 152t152 63t152 -63t63 -152q0 -65 -34 -117l264 -264q80 64 182 64q99 0 178 -60l264 262q-34 49 -34 115q0 89 63 152t152 63 t152 -63t63 -152t-63 -152t-152 -63q-66 0 -121 39l-262 -262q61 -77 61 -180q0 -101 -59 -179l268 -270q54 33 113 33q89 0 152 -63t63 -152t-63 -152t-152 -63t-152 63t-63 152q0 72 41 125l-267 266q-81 -62 -182 -62q-104 0 -184 64l-269 -266q41 -57 41 -127 q0 -89 -63 -152t-152 -63t-152 63t-63 152zM270 -10q0 -54 37.5 -91.5t91.5 -37.5t91.5 37.5t37.5 91.5t-37.5 91.5t-91.5 37.5t-91.5 -37.5t-37.5 -91.5zM270 1239q0 -53 37.5 -91t91.5 -38t91.5 38t37.5 91q0 54 -37.5 92.5t-91.5 38.5t-91.5 -38.5t-37.5 -92.5zM811 621 q0 -89 63 -152t152 -63t152 63t63 152t-63 152t-152 63t-152 -63t-63 -152zM1520 -10q0 -54 37.5 -91.5t91.5 -37.5t91.5 37.5t37.5 91.5t-37.5 91.5t-91.5 37.5t-91.5 -37.5t-37.5 -91.5zM1520 1239q0 -53 37.5 -91t91.5 -38t91.5 38t37.5 91q0 54 -37.5 92.5t-91.5 38.5 t-91.5 -38.5t-37.5 -92.5z" />
<glyph unicode="+" d="M426 528v172h512v512h172v-512h512v-172h-512v-512h-172v512h-512z" />
<glyph unicode="," d="M150 -225v768h768v-768h-768zM408 715h167q0 139 69 257t188 186.5t258 68.5v170q-111 0 -215.5 -34.5t-188 -98t-146.5 -147.5t-97.5 -187.5t-34.5 -214.5zM1071 160q0 170 122 291.5t294 121.5q170 0 292 -121.5t122 -291.5q0 -172 -122 -294t-292 -122 q-172 0 -294 122t-122 294zM1090 715l383 768l385 -768h-373h-41h-354z" />
<glyph unicode="-" d="M426 528v172h1196v-172h-1196z" />
<glyph unicode="." d="M156 -240l385 768l383 -768h-371h-43h-354zM156 700v768h768v-768h-768zM1065 1083q0 127 69 230t181 151v-417h327v417q112 -48 182 -151t70 -230q0 -136 -80 -244.5t-206 -150.5v-928h-256v930q-127 40 -207 148t-80 245z" />
<glyph unicode="/" d="M139 332q0 153 76 282.5t206.5 205t283.5 75.5t282.5 -75.5t205 -205t75.5 -282.5t-75.5 -283t-205 -206t-282.5 -76t-283.5 76t-206.5 206t-76 283zM297 332q0 -37 12 -103h172q-6 52 -6 103t6 100h-172q-12 -62 -12 -100zM352 129q74 -130 219 -182q-45 83 -69 182 h-150zM352 535h150q27 105 69 180q-142 -48 -219 -180zM578 332q0 -50 6 -103h239q8 70 8 103q0 34 -8 100h-239q-6 -49 -6 -100zM606 129q35 -112 99 -203q61 91 96 203h-195zM606 535h195q-35 112 -96 200q-64 -88 -99 -200zM836 -53q143 51 219 182h-150 q-24 -99 -69 -182zM836 715q42 -75 69 -180h150q-77 132 -219 180zM881 983v330q0 70 50.5 120t121.5 50h684q71 0 120.5 -49.5t49.5 -120.5v-1368q0 -71 -49.5 -120.5t-120.5 -49.5h-654q136 92 215.5 239.5t79.5 317.5q0 229 -139.5 409.5t-357.5 241.5zM926 229h172 q12 49 12 103t-12 100h-172q6 -49 6 -100q0 -50 -6 -103zM1053 1141h684v172h-684v-172zM1565 -55h172v172h-172v-172z" />
<glyph unicode="0" d="M256 225v768q0 53 45 76l674 379q22 16 49 16t49 -16l674 -379q45 -23 45 -76v-768q0 -50 -45 -73l-674 -379q-24 -17 -49 -17t-49 17l-674 379q-45 23 -45 73zM426 276l512 -288v573l-512 287v-572zM516 993l508 -284l168 94l-502 289zM862 1188l504 -289l166 94 l-508 287zM1110 -12l512 288v572l-512 -287v-573z" />
<glyph unicode="1" d="M170 0h598q0 35 25.5 60.5t60.5 25.5h84v170h-596q-35 0 -60.5 25.5t-25.5 60.5v342q0 35 25.5 59.5t60.5 24.5h1364q35 0 60.5 -24.5t25.5 -59.5v-342q0 -35 -25.5 -60.5t-60.5 -25.5h-596v-170h84q35 0 60.5 -25.5t25.5 -60.5h598v-170h-598q0 -35 -25.5 -60.5 t-60.5 -25.5h-340q-35 0 -60.5 25.5t-25.5 60.5h-598v170zM256 1024v342q0 35 25.5 60.5t60.5 25.5h1364q35 0 60.5 -25.5t25.5 -60.5v-342q0 -35 -25.5 -59.5t-60.5 -24.5h-1364q-35 0 -60.5 24.5t-25.5 59.5zM426 428h172v170h-172v-170zM426 1110h172v170h-172v-170z M768 428h86v170h-86v-170zM768 1110h86v170h-86v-170z" />
<glyph unicode="2" d="M170 614q0 139 43 269.5t122 235.5t184 184t235.5 122t269.5 43t269.5 -43t235.5 -122t184 -184t122 -235.5t43 -269.5t-43 -269.5t-122 -235.5t-184 -184t-235.5 -122t-269.5 -43t-269.5 43t-235.5 122t-184 184t-122 235.5t-43 269.5zM342 614q0 -171 78.5 -319 t215 -242t302.5 -114v163q-70 0 -120 50t-50 120v86l-410 410q-16 -82 -16 -154zM682 614h512q35 0 60.5 -25.5t25.5 -60.5v-256h86q56 0 100.5 -32.5t61.5 -85.5q178 197 178 460q0 212 -118 383.5t-308 249.5v-35q0 -70 -50.5 -121t-119.5 -51h-172v-170 q0 -35 -24.5 -60.5t-59.5 -25.5h-172v-170z" />
<glyph unicode="3" d="M170 614q0 139 43 269.5t122 235.5t184 184t235.5 122t269.5 43t269.5 -43t235.5 -122t184 -184t122 -235.5t43 -269.5t-43 -269.5t-122 -235.5t-184 -184t-235.5 -122t-269.5 -43t-269.5 43t-235.5 122t-184 184t-122 235.5t-43 269.5zM342 614q0 -82 20 -170h289 q-12 110 -12 170t12 170h-289q-20 -88 -20 -170zM434 272q62 -107 157 -185.5t212 -117.5q-75 138 -117 303h-252zM434 956h252q42 167 117 304q-117 -39 -212 -118t-157 -186zM811 614q0 -60 12 -170h400q14 96 14 170t-14 170h-400q-12 -110 -12 -170zM860 272 q57 -186 164 -338q107 152 164 338h-328zM860 956h328q-57 186 -164 338q-107 -152 -164 -338zM1245 -31q117 39 211.5 118t157.5 185h-252q-42 -165 -117 -303zM1245 1260q75 -137 117 -304h252q-63 106 -158 185.5t-211 118.5zM1397 444h286q23 87 23 170t-23 170h-286 q10 -92 10 -170t-10 -170z" />
<glyph unicode="4" d="M598 -150v1526q0 38 26 64t64 26h672q37 0 63.5 -26t26.5 -64v-1526q0 -37 -26.5 -62.5t-63.5 -25.5h-672q-38 0 -64 25.5t-26 62.5zM768 612h512v176h-512v-176zM768 866h512v176h-512v-176zM768 1122h512v174h-512v-174zM856 137q0 -69 49.5 -118.5t118.5 -49.5 t118.5 49.5t49.5 118.5t-49.5 118.5t-118.5 49.5t-118.5 -49.5t-49.5 -118.5z" />
<glyph unicode="5" d="M424 -111v295q0 46 32 77.5t76 31.5h984q44 0 76 -31.5t32 -77.5v-295q0 -44 -32 -76t-76 -32h-984q-44 0 -76 32t-32 76zM600 37q0 -35 24.5 -59.5t59.5 -24.5t60.5 24.5t25.5 59.5t-25.5 60.5t-60.5 25.5t-59.5 -25.5t-24.5 -60.5zM772 860v629h508l-254 -449h254 l-340 -626v446h-168z" />
<glyph unicode="6" d="M260 -145v510h680v-510h-680zM260 535v847h680v-847h-680zM1108 -145v847h680v-847h-680zM1108 872v510h680v-510h-680z" />
<glyph unicode="7" d="M338 117v172h180q-8 58 -8 86v84h-172v172h172v86q0 28 8 86h-180v170h242q59 102 155 168l-139 139l121 121l186 -184q68 14 121 14t121 -14l186 184l121 -121l-139 -139q96 -66 155 -168h240v-170h-178q8 -58 8 -86v-86h170v-172h-170v-84q0 -28 -8 -86h178v-172h-240 q-69 -118 -186.5 -187t-257.5 -69q-141 0 -259 69.5t-185 186.5h-242zM852 289h344v170h-344v-170zM852 631h344v172h-344v-172z" />
<glyph unicode="8" d="M418 893q0 77 55 132.5t133 55.5q76 0 131.5 -55.5t55.5 -132.5q0 -52 -28.5 -96t-74.5 -68v-178h256v684h-170l256 340l256 -340h-170v-684h256v172h-86v340h342v-340h-86v-172q0 -71 -50 -120.5t-120 -49.5h-256v-260q46 -26 74.5 -70t28.5 -96q0 -78 -56 -133 t-133 -55t-132.5 55t-55.5 133q0 52 28 96t74 70v260h-256q-70 0 -120 49.5t-50 120.5v178q-46 24 -74 67.5t-28 96.5z" />
<glyph unicode="9" d="M256 90v182h682v-340h-524q-66 0 -112 46t-46 112zM256 444v340h254v-340h-254zM256 956v183q0 66 46 111.5t112 45.5h524v-340h-682zM682 444v340h684v-340h-684zM1110 -68v340h682v-182q0 -66 -46.5 -112t-111.5 -46h-524zM1110 956v340h524q65 0 111.5 -45.5 t46.5 -111.5v-183h-682zM1536 444v340h256v-340h-256z" />
<glyph unicode=":" d="M86 612q0 191 74.5 364.5t200 299t299 200t364.5 74.5t364.5 -74.5t299 -200t200 -299t74.5 -364.5h-170q0 209 -103 385.5t-279.5 279.5t-385.5 103t-385.5 -103t-279.5 -279.5t-103 -385.5h-170zM426 612q0 122 47.5 232.5t127.5 190.5t190.5 127.5t232.5 47.5 t232.5 -47.5t190.5 -127.5t127.5 -190.5t47.5 -232.5h-172q0 177 -124.5 301.5t-301.5 124.5t-301.5 -124.5t-124.5 -301.5h-172zM647 -156l291 291v283q-57 25 -92 77t-35 117q0 88 62 150.5t151 62.5q88 0 150.5 -62.5t62.5 -150.5q0 -65 -35 -117t-92 -77v-283l291 -291 l-121 -120l-256 256l-256 -256z" />
<glyph unicode=";" d="M-2 -57v256h172v940q0 71 50 121.5t120 50.5h1538v-172h-1538v-940h854v-256h-1196zM1366 29v854q0 35 25.5 60.5t60.5 25.5h512q35 0 60.5 -25.5t25.5 -60.5v-854q0 -35 -25.5 -60.5t-60.5 -25.5h-512q-35 0 -60.5 25.5t-25.5 60.5zM1536 199h342v598h-342v-598z" />
<glyph unicode="&#x3c;" d="M242 1012q0 32 22.5 55t54.5 23h314v-156h-314q-32 0 -54.5 23t-22.5 55zM319 698q0 32 23 55t55 23h236v-155h-236q-32 0 -55 22.5t-23 54.5zM397 385q0 32 23 55t55 23h334l-39 -156h-295q-32 0 -55 23t-23 55zM569 -6l328 192l199 772l-166 -51v-286h-142v407l424 131 l41 6q35 0 65.5 -17.5t47.5 -47.5l158 -260h282v-142h-381l-86 144l-57 -226l197 -356v-502h-142v392l-182 243l-125 -352l-379 -164zM1274 1325q0 59 41 100t100 41t100 -41t41 -100t-41 -100t-100 -41t-100 41t-41 100z" />
<glyph unicode="=" d="M512 1468h1024l-342 -342l256 -938l-426 -428l-426 428l256 938z" />
<glyph unicode="&#x3e;" d="M170 145q0 141 100.5 240.5t241.5 99.5t241.5 -99.5t100.5 -240.5t-100.5 -241.5t-241.5 -100.5t-241.5 100.5t-100.5 241.5zM342 145q0 -71 50 -121.5t120 -50.5t120 50.5t50 121.5t-50 120.5t-120 49.5t-120 -49.5t-50 -120.5zM682 1083q0 141 100.5 241.5t241.5 100.5 t241.5 -100.5t100.5 -241.5t-100.5 -241.5t-241.5 -100.5t-241.5 100.5t-100.5 241.5zM854 1083q0 -71 50 -120.5t120 -49.5t120 49.5t50 120.5t-50 120.5t-120 49.5t-120 -49.5t-50 -120.5zM862 485q0 68 47.5 116t114.5 48t114.5 -48t47.5 -116q0 -66 -47.5 -113.5 t-114.5 -47.5t-114.5 47.5t-47.5 113.5zM1194 145q0 141 100.5 240.5t241.5 99.5t241.5 -99.5t100.5 -240.5t-100.5 -241.5t-241.5 -100.5t-241.5 100.5t-100.5 241.5zM1366 145q0 -71 50 -121.5t120 -50.5t120 50.5t50 121.5t-50 120.5t-120 49.5t-120 -49.5t-50 -120.5z " />
<glyph unicode="?" d="M174 35.5q0 33.5 25 58.5l948 948q23 23 57.5 23t57.5 -23l190 -190q23 -23 23 -57.5t-23 -57.5l-948 -948q-25 -25 -59 -25t-56 25l-190 191q-25 22 -25 55.5zM500 1065l114 203l-114 205l202 -115l203 115l-112 -205l112 -203l-203 115zM1006 768l172 -172l198 199 l-172 172zM1475 90l114 203l-114 203l202 -113l205 113l-115 -203l115 -203l-205 115zM1475 1065l114 203l-114 205l202 -115l205 115l-115 -205l115 -203l-205 115z" />
<glyph unicode="@" d="M170 -135q0 84 61.5 159t157 127t211.5 90.5t226 57t198 18.5t198 -18.5t226 -57t211.5 -90.5t157 -127t61.5 -159v-146h-1708v146zM492 1298l532 213l532 -213l-106 -213h-852zM598 915h852q0 -178 -124.5 -303t-301.5 -125t-301.5 125t-124.5 303z" />
<glyph unicode="A" d="M256 -147v319l944 944l320 -319l-945 -944h-319zM1290 1208l158 156q25 25 59.5 25t59.5 -25l200 -201q25 -25 25 -59.5t-25 -59.5l-155 -157z" />
<glyph unicode="B" d="M426 1133v170h299l86 86h426l86 -86h299v-170h-1196zM512 23v1024h1024v-1024q0 -70 -50.5 -120t-119.5 -50h-684q-70 0 -120 49.5t-50 120.5z" />
<glyph unicode="C" d="M383 -147v1450h768l35 -170h477v-854h-596l-35 172h-477v-598h-172z" />
<glyph unicode="D" d="M360 559l302 303l83 -84l244 -241v-2l166 -166l111 -111l-303 -301q-81 -82 -191 -111q-55 -14 -110 -14t-110 14q-110 29 -192 111q-126 125 -126 300q1 177 126 302zM408 300q-4 -23 -4 -45q0 -57 26 -108l356 357l-120 121l-185 -185q-59 -58 -73 -140zM782 983 l301 301q126 124 303.5 124t301.5 -124t124 -301t-124 -303l-302 -301l-120 121l301 301q75 75 75 181t-75 181t-181.5 75t-181.5 -75l-301 -301z" />
<glyph unicode="E" d="M172 -76v441q0 67 48 115t116 48h92v172h-92q-68 0 -116 48t-48 116v439q0 69 48 117t116 48h440q68 0 116 -48t48 -117v-84h170v84q0 69 48.5 117t117.5 48h438q68 0 116 -48t48 -117v-439q0 -68 -48 -116t-116 -48h-92v-172h92q68 0 116 -48t48 -115v-441 q0 -68 -48 -116t-116 -48h-438q-69 0 -117.5 48t-48.5 116v99h-170v-99q0 -68 -48 -116t-116 -48h-440q-68 0 -116 48t-48 116zM342 -70h428v430h-428v-430zM342 868h428v430h-428v-430zM598 528h178q68 0 116 -48t48 -115v-170h170v170q0 68 48.5 115.5t117.5 47.5h176v172 h-176q-69 0 -117.5 48t-48.5 116v183h-170v-183q0 -68 -48 -116t-116 -48h-178v-172zM1280 -70h430v430h-430v-430zM1280 868h430v430h-430v-430z" />
<glyph unicode="F" d="M256 193v169h172v-169h-172zM256 532v173h172v-173h-172zM256 874v170h172v-170h-172zM598 193v169h1194v-169h-1194zM598 532v173h1194v-173h-1194zM598 874v170h1194v-170h-1194z" />
<glyph unicode="G" d="M342 -74v1346q0 78 55 133t133 55h664l512 -512v-1016q0 -73 -52 -124.5t-124 -51.5h-1016q-71 0 -121.5 50t-50.5 120zM514 -74h1022v852h-512v512h-510v-1364zM1194 948h291l-291 291v-291z" />
<glyph unicode="H" d="M0 -43h170v1280h1708v-1280h170v-170h-2048v170zM342 213h1364v854h-1364v-854zM854 43v-86h340v86h-340z" />
<glyph unicode="I" d="M170 705v595q0 71 51 122t121 51h596q69 0 121 -52l768 -768q51 -51 51 -121q0 -67 -51 -118l-598 -598q-49 -52 -119 -52q-71 0 -121 50l-768 768q-51 51 -51 123zM371 1174q0 -54 37 -92t90 -38q54 0 91.5 38t37.5 92q0 53 -37.5 89.5t-91.5 36.5q-53 0 -90 -37 t-37 -89z" />
<glyph unicode="J" d="M170 614q0 217 101.5 405t277.5 306t389 139v-260q-218 -31 -365 -198.5t-147 -391.5q0 -122 47.5 -232.5t127.5 -190.5t190.5 -127.5t232.5 -47.5q138 0 259.5 60t205.5 164l221 -129q-118 -163 -298.5 -257t-387.5 -94q-139 0 -269.5 43t-235.5 122t-184 184 t-122 235.5t-43 269.5zM1110 1204v260q212 -21 388 -139t278 -306t102 -405q0 -177 -76 -348l-221 131q41 112 41 217q0 224 -147 391.5t-365 198.5z" />
<glyph unicode="K" d="M170 614q0 139 43 269.5t122 235.5t184 184t235.5 122t269.5 43t269.5 -43t235.5 -122t184 -184t122 -235.5t43 -269.5t-43 -269.5t-122 -235.5t-184 -184t-235.5 -122t-269.5 -43t-269.5 43t-235.5 122t-184 184t-122 235.5t-43 269.5zM360 614q0 -180 89 -333 t241.5 -241.5t333.5 -88.5v285q-157 0 -268 110.5t-111 267.5h-285zM831 614q0 -79 56.5 -135.5t136.5 -56.5t136.5 56.5t56.5 135.5q0 80 -56.5 136.5t-136.5 56.5t-136.5 -56.5t-56.5 -136.5zM1024 993q157 0 268 -111t111 -268h285q0 181 -89 333.5t-241.5 241.5 t-333.5 89v-285z" />
<glyph unicode="L" d="M86 272v172h512v-172q0 -82 -48 -147t-124 -92v-357h-170v357q-75 27 -122.5 92t-47.5 147zM86 614v512h170v342q0 35 25.5 59.5t60.5 24.5t59.5 -24.5t24.5 -59.5v-342h172v-512h-512zM768 272v172h512v-172q0 -82 -47.5 -147t-122.5 -92v-357h-172v357 q-75 27 -122.5 92t-47.5 147zM768 614v512h170v342q0 35 25.5 59.5t60.5 24.5t60.5 -24.5t25.5 -59.5v-342h170v-512h-512zM1450 272v172h512v-172q0 -82 -47.5 -147t-122.5 -92v-357h-170v357q-76 27 -124 92t-48 147zM1450 614v512h172v342q0 35 24.5 59.5t59.5 24.5 t60.5 -24.5t25.5 -59.5v-342h170v-512h-512z" />
<glyph unicode="M" d="M256 360v170h170v172h-170v170h170v175q0 69 49.5 118t118.5 49h174v170h170v-170h172v170h170v-170h174q69 0 118.5 -49t49.5 -118v-175h170v-170h-170v-172h170v-170h-170v-174q0 -69 -49.5 -118.5t-118.5 -49.5h-174v-170h-170v170h-172v-170h-170v170h-174 q-69 0 -118.5 49.5t-49.5 118.5v174h-170zM604 197h840v839h-840v-839zM768 360v512h512v-512h-512zM938 530h172v172h-172v-172z" />
<glyph unicode="N" d="M512 803l121 121l391 -392l391 392l121 -121l-512 -512z" />
<glyph unicode="O" d="M512 426l512 512l512 -512l-121 -121l-391 391l-391 -391z" />
<glyph unicode="P" d="M709 614l512 512l118 -120l-391 -392l391 -393l-118 -119z" />
<glyph unicode="Q" d="M709 223l391 391l-391 394l118 118l512 -512l-512 -512z" />
<glyph unicode="R" d="M342 614q0 70 50 120t120 50t120 -50t50 -120t-50 -120t-120 -50t-120 50t-50 120zM854 614q0 70 50 120t120 50t120 -50t50 -120t-50 -120t-120 -50t-120 50t-50 120zM1366 614q0 70 50 120t120 50t120 -50t50 -120t-50 -120t-120 -50t-120 50t-50 120z" />
<glyph unicode="S" d="M426 -156v1536q0 70 50.5 120t121.5 50h852q71 0 121.5 -50t50.5 -120v-1536q0 -70 -50.5 -120t-121.5 -50h-852q-71 0 -121.5 50t-50.5 120zM598 14h852v1196h-852v-1196z" />
<glyph unicode="T" d="M84 102v1024q0 71 50 121.5t120 50.5h1540q70 0 120 -50.5t50 -121.5v-1024q0 -71 -50 -121.5t-120 -50.5h-1540q-70 0 -120 50.5t-50 121.5zM426 102h1196v1024h-1196v-1024z" />
<glyph unicode="U" d="M469 -109v1450q0 88 63 150.5t152 62.5h682q88 0 150.5 -62.5t62.5 -150.5v-1450q0 -89 -62.5 -151t-150.5 -62h-682q-89 0 -152 62t-63 151zM641 27v-144h260h246h262v144h-768zM641 188h768v146v2l-768 -2v-146zM641 502h170v170h-170v-170zM641 819h768v479h-768v-479 zM909 586q0 -47 34 -81t81 -34t82 34t35 81t-35 81.5t-82 34.5t-81 -34.5t-34 -81.5zM1237 502h172v170h-172v-170z" />
<glyph unicode="V" d="M340 -152v1541q0 70 50.5 120t121.5 50h1026q70 0 120 -49.5t50 -120.5v-1541q0 -70 -50 -120t-120 -50h-1026q-71 0 -121.5 50t-50.5 120zM512 20v-172h289v172h-289zM512 193h1026v1193h-1026v-1193zM891 -66q0 -56 38.5 -94.5t94.5 -38.5t94.5 38.5t38.5 94.5t-39 95 t-94 39t-94 -39t-39 -95zM1249 20v-172h289v172h-289z" />
<glyph unicode="W" d="M213 47v342q0 71 49.5 120.5t120.5 49.5h768v256h172v-256h84h172q69 0 119.5 -50t50.5 -120v-342q0 -70 -50.5 -120t-119.5 -50h-1196q-71 0 -120.5 49.5t-49.5 120.5zM469 133h170v170h-170v-170zM639 1231q118 116 272 181t326 65t326 -65t272 -183l-109 -109 q-95 97 -220.5 150t-268.5 53q-141 0 -267.5 -53t-221.5 -148zM768 133h170v170h-170v-170zM856 1014q75 73 173.5 114t207.5 41q223 0 381 -155l-109 -109q-114 111 -272 111t-272 -111zM1067 133h170v170h-170v-170z" />
<glyph unicode="X" d="M168 -72v344h1712v-344h-1712zM168 442v344h1712v-344h-1712zM168 956v344h1712v-344h-1712zM338 14h172v172h-172v-172zM338 528h172v172h-172v-172zM338 1042h172v172h-172v-172z" />
<glyph unicode="Y" d="M0 512q0 196 131.5 342t325.5 166q81 156 233 250t334 94q231 0 407.5 -146t219.5 -368q168 -12 282.5 -134t114.5 -290q0 -177 -124.5 -301.5t-301.5 -124.5h-1110q-212 0 -362 150t-150 362z" />
<glyph unicode="Z" d="M256 700v512l768 340l768 -340v-512q0 -235 -99.5 -451t-275.5 -368.5t-393 -204.5q-217 52 -393 204.5t-275.5 368.5t-99.5 451zM426 614h598v-761q235 73 399.5 284.5t198.5 476.5h-598v752l-598 -266v-486z" />
<glyph unicode="[" d="M256 186v170v6v164v332q0 75 52.5 127.5t127.5 52.5h1176q75 0 127.5 -52.5t52.5 -127.5v-332v-164v-6v-170h-170v170h-172v-170h-170v170h-170v-170h-172v170h-170v-170h-170v170h-172v-170h-170zM426 526h1196v342h-1196v-342z" />
<glyph unicode="\" d="M168 299v672q0 38 27 65t65 27h1528q38 0 65 -27t27 -65v-672q0 -38 -27 -65t-65 -27h-850v-172h-170v172h-172v-172h-172v172h-164q-38 0 -65 27t-27 65zM1167 635q0 -121 85.5 -207t207.5 -86t207.5 86t85.5 207t-85.5 207t-207.5 86t-207.5 -86t-85.5 -207zM1286 635 q0 72 51 123t123 51t123 -51t51 -123t-51 -123t-123 -51t-123 51t-51 123z" />
<glyph unicode="]" d="M256 -72v172v1024v170h170v-170h1366v-1024h-598v-172h-170v172h-170v-172h-172v172h-256v-172h-170zM647 408q0 -63 66.5 -107.5t160.5 -44.5q95 0 161.5 44.5t66.5 107.5v6v450h2q39 0 67 -13.5t39.5 -32t17.5 -37.5t6 -33l-1 -13q0 -55 38.5 -93t92.5 -38v131 q0 53 -14.5 96t-37.5 69.5t-51 46t-56 28.5t-51 14t-38 5l-14 1h-129v-450q-50 16 -99 16q-94 0 -160.5 -45t-66.5 -108z" />
<glyph unicode="^" d="M182 98q0 116 72 207t182 119v358q-110 30 -182 120.5t-72 207.5q0 139 99 237.5t239 98.5t239 -98.5t99 -237.5q0 -117 -72 -207.5t-182 -120.5v-358q110 -28 182 -119t72 -207q0 -140 -99 -239t-239 -99t-239 99t-99 239zM352 98q0 -70 49.5 -119t118.5 -49t118.5 49 t49.5 119q0 69 -49.5 118.5t-118.5 49.5t-118.5 -49.5t-49.5 -118.5zM352 1110q0 -70 49.5 -120t118.5 -50t118.5 50t49.5 120q0 69 -49.5 118.5t-118.5 49.5t-118.5 -49.5t-49.5 -118.5zM922 1110l356 358v-274h170q69 0 118.5 -49.5t49.5 -118.5v-602q110 -28 181 -119 t71 -207q0 -140 -98.5 -239t-237.5 -99q-140 0 -239 99t-99 239q0 116 72 207t182 119v602h-170v-274zM1364 98q0 -70 49 -119t119 -49q69 0 118.5 49t49.5 119q0 69 -49.5 118.5t-118.5 49.5q-70 0 -119 -49.5t-49 -118.5z" />
<glyph unicode="_" d="M428 870q0 122 47 232.5t127 190.5t190 127.5t232 47.5t232 -47.5t190 -127.5t127 -190.5t47 -232.5q0 -150 -68.5 -278t-187.5 -211v-193q0 -35 -24.5 -60.5t-59.5 -25.5h-256h-256q-35 0 -60.5 25.5t-25.5 60.5v193q-118 83 -186 211.5t-68 277.5zM768 -68h256h256v-84 q0 -35 -25.5 -60.5t-60.5 -25.5h-170h-170q-35 0 -60.5 25.5t-25.5 60.5v84zM1024 274h170v205q116 52 186 157t70 234q0 177 -124.5 301.5t-301.5 124.5v-1022z" />
<glyph unicode="`" d="M258 18l256 256v510q0 188 121 330.5t303 173.5v92q0 35 25.5 60.5t60.5 25.5t60.5 -25.5t25.5 -60.5v-92q182 -31 303 -173.5t121 -330.5v-510l256 -256h-1532zM854 -66h340q0 -71 -50 -121.5t-120 -50.5t-120 50.5t-50 121.5z" />
<glyph unicode="a" d="M256 20v1192q0 74 49 123t123 49h1192q74 0 123 -49t49 -123v-1192q0 -69 -50 -120.5t-122 -51.5h-1192q-72 0 -122 51.5t-50 120.5zM428 616l426 -423l766 763l-121 123l-645 -649l-305 307z" />
<glyph unicode="b" d="M256 20v1197q0 69 50 119t120 50h1196q69 0 119.5 -50t50.5 -119v-1197q0 -70 -50.5 -120t-119.5 -50h-1196q-70 0 -120 50t-50 120zM426 20h1196v1197h-1196v-1197z" />
<glyph unicode="c" d="M170 -152v1536h854v-342h854v-1194h-1708zM342 18h170v172h-170v-172zM342 360h170v170h-170v-170zM342 702h170v170h-170v-170zM342 1042h170v172h-170v-172zM682 18h172v172h-172v-172zM682 360h172v170h-172v-170zM682 702h172v170h-172v-170zM682 1042h172v172h-172 v-172zM1024 18h682v854h-682v-170h170v-172h-170v-170h170v-170h-170v-172zM1366 190v170h170v-170h-170zM1366 530v172h170v-172h-170z" />
<glyph unicode="d" d="M170 104l2 1024q0 71 49 120.5t121 49.5h1364q72 0 122 -49.5t50 -120.5v-1024q0 -71 -50 -120.5t-122 -49.5h-1364q-72 0 -122 49.5t-50 120.5zM342 104h1364v512h-1364v-512zM342 958h1364v170h-1364v-170z" />
<glyph unicode="e" d="M170 104l2 1024q0 70 50 120t120 50h1364q71 0 121.5 -50t50.5 -120v-1024q0 -70 -50.5 -120t-121.5 -50h-1364q-71 0 -121.5 50t-50.5 120zM342 958l682 -428l682 428v170l-682 -426l-682 426v-170z" />
<glyph unicode="f" d="M426 -84h1196v170h-1196v-170zM426 768l598 598l598 -598h-342v-512h-512v512h-342z" />
<glyph unicode="g" d="M512 -68v1364q0 71 50 121.5t120 50.5h684q70 0 120 -50.5t50 -121.5v-1364q0 -71 -50 -121.5t-120 -50.5h-684q-70 0 -120 50.5t-50 121.5zM682 784h684v172h-684v-172zM682 1126h684v170h-684v-170zM1194 -68h172v170h-172v-170z" />
<glyph unicode="h" d="M86 272v1024q0 70 50.5 120t119.5 50h1536q69 0 119.5 -50t50.5 -120v-1024q0 -69 -50.5 -119.5t-119.5 -50.5h-598v-170h170v-170h-682v170h172v170h-598q-69 0 -119.5 50.5t-50.5 119.5zM256 272h1536v1024h-1536v-1024z" />
<glyph unicode="i" d="M86 272v1024q0 71 50 121.5t120 50.5h1536q70 0 120 -50.5t50 -121.5v-1024q0 -70 -50 -120t-120 -50h-598l172 -256v-86h-684v86l172 256h-598q-70 0 -120 50t-50 120zM256 444h1536v852h-1536v-852z" />
<glyph unicode="j" d="M342 -53v-172h1364v172h-1364zM342 303v993q0 77 54 132t132 55h992q78 0 132 -55t54 -132v-993q0 -77 -54 -131.5t-132 -54.5h-992q-78 0 -132 54.5t-54 131.5zM1366 373q0 -35 24.5 -59.5t59.5 -24.5t60.5 24.5t25.5 59.5t-25.5 60.5t-60.5 25.5t-59.5 -25.5 t-24.5 -60.5z" />
<glyph unicode="k" d="M254 -213h154v428h-154v-428zM254 524v185q0 57 40.5 98t98.5 41h107q58 0 98.5 -41t40.5 -98v-185q0 -58 -40.5 -98.5t-98.5 -40.5h-107q-59 0 -99 40.5t-40 98.5zM254 1018h154v428h-154v-428zM389 502h115v229h-115v-229zM561 -92v184q0 58 41 98.5t98 40.5h109 q57 0 97 -40.5t40 -98.5v-184q0 -57 -40 -97t-97 -40h-109q-57 0 -98 40t-41 97zM561 1141v184q0 57 41 97t98 40h109q57 0 97 -40t40 -97v-184q0 -58 -40 -99t-97 -41h-109q-57 0 -98 41t-41 99zM696 115v-230h115v230h-115zM696 1118h115v230h-115v-230zM793 524v185 q0 57 40.5 98t98.5 41h106q58 0 99 -41t41 -98v-185q0 -58 -40.5 -98.5t-99.5 -40.5h-106q-58 0 -98.5 40.5t-40.5 98.5zM928 502h114v229h-114v-229zM1100 -213h155v428h-155v-428zM1102 1141v184q0 57 40 97t97 40h109q57 0 97 -40t40 -97v-184q0 -58 -40 -99t-97 -41 h-109q-57 0 -97 41t-40 99zM1235 1118h117v230h-117v-230zM1331 401h156v430h-156v-430zM1409 -92v184q0 58 40.5 98.5t98.5 40.5h107q59 0 99 -40.5t40 -98.5v-184q0 -57 -40.5 -97t-98.5 -40h-107q-58 0 -98.5 40t-40.5 97zM1544 115v-230h115v230h-115zM1638 401h156v430 h-156v-430zM1638 1018h156v428h-156v-428z" />
<glyph unicode="l" d="M92 923q-8 49 -8 96q0 121 55 232l375 -366l256 256l-367 366q103 47 216 51q11 0 22 1q103 1 201 -37q110 -42 192 -125q120 -120 154 -282q12 -59 12 -116q0 -99 -37 -192l776 -776q24 -17 24 -51q0 -40 -32 -68l-196 -197q-26 -26 -60.5 -26t-60.5 26l-776 777 q-93 -37 -191 -37q-57 0 -116 12q-161 34 -281 154q-128 127 -158 302z" />
<glyph unicode="m" d="M127 -82v324h129q95 0 162 67t67 162q0 97 -67 164t-162 67h-129v324q0 70 50.5 121t121.5 51h340v127q0 89 62.5 151t150.5 62q89 0 152 -62t63 -151v-127h340q71 0 121.5 -50t50.5 -122v-340h127q89 0 151 -63t62 -152q0 -88 -62 -150.5t-151 -62.5h-127v-340 q0 -70 -50.5 -121t-121.5 -51h-324v129q0 95 -67 162t-164 67q-95 0 -162 -67t-67 -162v-129h-324q-71 0 -121.5 51t-50.5 121z" />
<glyph unicode="n" d="M598 825h852l-426 -426z" />
<glyph unicode="o" d="M598 401l426 426l426 -426h-852z" />
<glyph unicode="p" d="M338 614l686 684l121 -120l-477 -478h1040v-172h-1040l477 -479l-121 -121z" />
<glyph unicode="q" d="M338 528v172h1040l-477 480l121 120l686 -686l-686 -684l-121 121l477 477h-1040z" />
<glyph unicode="r" d="M213 68v1024v170h170v-512h1366v-682h-256v-172h-170v172h-172v-172h-170v172h-598v-172h-170v172zM508 1407q130 130 301 203t362 73t362.5 -73t301.5 -203l-121 -121q-106 106 -246 165.5t-297 59.5t-297 -59t-247 -164zM750 1167q179 174 421 174q120 0 229 -46 t193 -128l-120 -120q-127 124 -302 124q-176 0 -303 -124z" />
<glyph unicode="s" d="M342 354v342h1364v-342q0 -139 -54 -265.5t-145 -217.5t-217.5 -145t-265.5 -54t-265.5 54t-217.5 145t-145 217.5t-54 265.5zM342 866q0 171 78.5 319t215 242.5t302.5 114.5v-676h-596zM1110 866v676q166 -20 302.5 -114.5t215 -242.5t78.5 -319h-596z" />
<glyph unicode="t" d="M170 186l2 852q0 71 50 121.5t120 50.5h1364q70 0 121 -51t51 -121v-852q0 -70 -51 -121t-121 -51h-1364q-70 0 -121 51t-51 121zM426 526h172v172h-172v-172zM426 782h172v172h-172v-172zM682 186h684v170h-684v-170zM682 526h172v172h-172v-172zM682 782h172v172h-172 v-172zM938 526h172v172h-172v-172zM938 782h172v172h-172v-172zM1194 526h172v172h-172v-172zM1194 782h172v172h-172v-172zM1450 526h172v172h-172v-172zM1450 782h172v172h-172v-172z" />
<glyph unicode="u" d="M256 109v596q0 209 103 385.5t279.5 279.5t385.5 103t385.5 -103t279.5 -279.5t103 -385.5v-596q0 -107 -75 -181.5t-181 -74.5h-256v682h342v170q0 122 -47.5 233t-127.5 191t-190.5 127t-232.5 47t-232.5 -47t-190.5 -127t-127.5 -191t-47.5 -233v-170h342v-682h-256 q-106 0 -181 74.5t-75 181.5z" />
<glyph unicode="v" d="M426 631h145q0 -93 37.5 -175.5t100 -139t145 -89t170.5 -32.5t170.5 32.5t145 89t100 139t37.5 175.5h145q0 -107 -41 -207t-110.5 -175t-163 -126t-197.5 -66v-280h-172v280q-104 15 -197.5 66t-163 126t-110.5 175t-41 207zM768 631v512q0 106 75 181t181 75t181 -75 t75 -181v-512q0 -106 -75 -181t-181 -75t-181 75t-75 181z" />
<glyph unicode="w" d="M172 188v592q0 107 76.5 183.5t183.5 76.5h1182q109 0 185.5 -76.5t76.5 -183.5v-592h-1704zM1192 614q0 -106 75 -181t181 -75q107 0 182.5 75t75.5 181q0 107 -75.5 182.5t-182.5 75.5q-106 0 -181 -75.5t-75 -182.5z" />
<glyph unicode="x" d="M342 -61v340h340v-340h-340zM342 451v340h340v-340h-340zM342 963v340h340v-340h-340zM854 -61v340h340v-340h-340zM854 451v340h340v-340h-340zM854 963v340h340v-340h-340zM1366 -61v340h340v-340h-340zM1366 451v340h340v-340h-340zM1366 963v340h340v-340h-340z" />
<glyph unicode="y" d="M170 188v512q0 106 75 181t181 75h1196q106 0 181 -75t75 -181v-512h-342v-342h-1024v342h-342zM512 1040v342h1024v-342h-1024zM682 16h684v428h-684v-428zM1536 700q0 -35 25.5 -60.5t60.5 -25.5t59.5 25.5t24.5 60.5t-24.5 59.5t-59.5 24.5t-60.5 -24.5t-25.5 -59.5z " />
<glyph unicode="z" d="M256 170v342q0 69 50 119.5t120 50.5h1075l-1202 434l59 164l1332 -487q44 -12 73 -57t29 -97v-469q0 -70 -50.5 -120t-119.5 -50h-1196q-70 0 -120 50t-50 120zM426 256h172v170h-172v-170zM768 256h854v170h-854v-170z" />
<glyph unicode="{" d="M170 -76v1381q0 67 48 115t116 48h1380q68 0 116 -48t48 -115v-1381q0 -68 -48 -116t-116 -48h-1380q-68 0 -116 48t-48 116zM342 -68h1364v1364h-1364v-1364zM426 614v86h86v170h-86v86h86v170h170v86h86v-86h170v86h86v-86h170v-170h86v-86h-86v-170h86v-86h-86v-170 h-170v-86h-86v86h-170v-86h-86v86h-170v170h-86zM512 102v170h682v-170h-682zM682 612h344v344h-344v-344zM768 700v170h170v-170h-170zM1366 102v1024h170v-1024h-170z" />
<glyph unicode="|" d="M426 16v1196q0 69 44 119.5t105 50.5h201v-159h162v159h88v-159h420v159h27q61 0 105 -50.5t44 -119.5v-1196q0 -70 -43.5 -120t-105.5 -50h-898q-62 0 -105.5 50t-43.5 120zM571 426q48 -25 109 -25q71 0 99.5 23.5t37.5 81.5q4 28 4 37q0 28 -17.5 43.5t-66.5 27.5 q-31 8 -41 13.5t-10 17.5q0 11 2 19q3 21 11.5 26.5t37.5 5.5q45 0 97 -10l12 64q-54 14 -103 14q-70 0 -94.5 -17.5t-36.5 -76.5q-4 -28 -4 -37q0 -32 18.5 -49.5t61.5 -28.5q33 -8 43 -13.5t10 -17.5q0 -10 -2 -18q-3 -23 -14 -31t-41 -8q-33 0 -96 18zM856 426 q48 -25 107 -25q72 0 100 23.5t37 81.5q6 21 6 37q0 28 -17.5 43.5t-66.5 27.5q-31 8 -41 13.5t-10 17.5q0 11 2 19q3 21 11.5 26.5t37.5 5.5q42 0 94 -10l14 64q-54 14 -102 14q-71 0 -96 -18t-35 -76q-4 -28 -4 -37q0 -32 18 -50t62 -28q33 -8 43 -13.5t10 -17.5 q0 -10 -2 -18q-5 -24 -15 -31.5t-40 -7.5q-38 0 -97 18zM1143 408h143q68 0 94 23.5t33 66.5l29 155q0 3 1 9.5t1 9.5q0 37 -26 61.5t-79 24.5h-135zM1233 475l37 215h49q45 0 45 -31q0 -8 -2 -14l-23 -125q-3 -24 -13.5 -34.5t-39.5 -10.5h-53z" />
<glyph unicode="}" d="M426 -72v1364q0 71 44 121.5t105 50.5h898q61 0 105 -50.5t44 -121.5v-1364q0 -71 -44 -121.5t-105 -50.5h-898q-61 0 -105 50.5t-44 121.5zM512 -72q0 -35 25.5 -60.5t60.5 -25.5t59.5 25.5t24.5 60.5t-24.5 59.5t-59.5 24.5t-60.5 -24.5t-25.5 -59.5zM512 1292 q0 -35 25.5 -59.5t60.5 -24.5t59.5 24.5t24.5 59.5t-24.5 60.5t-59.5 25.5t-60.5 -25.5t-25.5 -60.5zM598 866q0 -163 104 -280q-13 47 21 86q27 30 70 30q27 0 47 -14q234 -146 344 -217q119 48 192.5 155t73.5 240q0 177 -124.5 301.5t-301.5 124.5t-301.5 -124.5 t-124.5 -301.5zM793 610q50 -69 116 -155q222 -293 252 -320q28 -31 70 -31q41 0 72 31q29 29 29 70.5t-29 70.5q-30 30 -244 164zM872 866q0 63 44.5 107.5t107.5 44.5t107.5 -44.5t44.5 -107.5t-44.5 -107t-107.5 -44t-107.5 44t-44.5 107zM1352 -72q0 -35 24.5 -60.5 t59.5 -25.5t60.5 25.5t25.5 60.5t-25.5 59.5t-60.5 24.5t-59.5 -24.5t-24.5 -59.5zM1352 1292q0 -35 24.5 -59.5t59.5 -24.5t60.5 24.5t25.5 59.5t-25.5 60.5t-60.5 25.5t-59.5 -25.5t-24.5 -60.5z" />
<glyph unicode="~" d="M174 874l340 512h1024l340 -512q0 -89 -62.5 -150.5t-150.5 -61.5q-84 0 -144.5 56t-68.5 138q-6 -82 -67 -138t-144 -56q-90 0 -152.5 61.5t-62.5 150.5q0 -89 -62.5 -150.5t-150.5 -61.5q-84 0 -144.5 56t-68.5 138q-8 -82 -68.5 -138t-144.5 -56q-88 0 -150.5 61.5 t-62.5 150.5zM344 -150v682h1364v-682h-514v506h-338v-506h-512z" />
<glyph unicode="&#xa0;" />
<glyph unicode="&#xa1;" d="M340 -115v1229q0 63 43 109q48 45 109 45h305q0 49 16 88q18 40 49 71q37 37 72 50q44 18 90 18q48 0 88 -18q37 -13 74 -50q31 -31 49 -71q16 -46 16 -88h305q61 0 109 -45q43 -46 43 -109v-1229q0 -60 -43 -106q-45 -45 -109 -45h-1064q-64 0 -109 45q-43 46 -43 106z M492 -115h1064v1229h-151v-151h-762v151h-151v-1229zM672 74l268 733h166l270 -733h-188l-43 137h-242l-43 -137h-188zM944 332h158l-80 254zM948 1268q0 -33 23 -56q20 -20 53 -20t53 20q23 26 23 56t-23 53q-22 22 -53 22t-53 -22q-23 -20 -23 -53z" />
<glyph unicode="&#xa2;" d="M258 25v1185q0 72 50 122t122 50h1186q72 0 122 -50t50 -122v-1185q0 -72 -50 -123.5t-122 -51.5h-1186q-72 0 -122 51.5t-50 123.5zM598 223h854v107q0 35 -22 63q-24 34 -58 53q-39 27 -80 43q-58 22 -94 29q-55 14 -92 19q-47 6 -82 6q-36 0 -80 -6q-33 -4 -94 -19 q-34 -7 -92 -29q-37 -15 -82 -43q-31 -19 -55 -53q-23 -26 -23 -63v-107zM811 864q0 -44 16 -84q13 -35 45 -67q29 -29 70 -47q43 -17 82 -17q38 0 84 17q45 22 68 47q29 26 47 67q16 40 16 84q0 39 -16 82q-19 43 -47 68q-30 30 -68 45q-36 16 -84 16q-49 0 -82 -16 q-34 -13 -70 -45q-31 -31 -45 -68q-16 -43 -16 -82z" />
<glyph unicode="&#xa3;" d="M170 102v342q70 0 123 50q49 49 49 120q0 36 -12 66q-16 32 -37 53q-25 25 -55 37q-28 14 -68 14v342q0 73 51 121q49 49 121 49h1364q72 0 121 -49q51 -51 51 -121v-342q-74 0 -123 -49t-49 -121q0 -71 49 -120q50 -50 123 -50v-342q0 -69 -51 -120q-50 -50 -121 -50 h-1364q-71 0 -121 50q-51 48 -51 120zM526 614q0 -135 67 -249.5t181.5 -181t249.5 -66.5t249 66.5t180.5 181t66.5 249.5t-66.5 249t-180.5 180.5t-249 66.5t-249.5 -66.5t-181.5 -180.5t-67 -249zM938 514v123v319h139v-303h250v-139h-266h-123z" />
<glyph unicode="&#xa4;" d="M256 614q0 209 103 385.5t279.5 279.5t385.5 103t385.5 -103t279.5 -279.5t103 -385.5t-103 -385.5t-279.5 -279.5t-385.5 -103t-385.5 103t-279.5 279.5t-103 385.5zM682 530h684v168h-684v-168z" />
<glyph unicode="&#xa5;" d="M170 1151l393 328l109 -129l-391 -330zM256 528q0 209 103 385.5t279.5 279.5t385.5 103t385.5 -103t279.5 -279.5t103 -385.5t-103 -385.5t-279.5 -279.5t-385.5 -103t-385.5 103t-279.5 279.5t-103 385.5zM426 528q0 -122 47.5 -232t127.5 -190t190.5 -127t232.5 -47 t232.5 47t190.5 127t127.5 190t47.5 232t-47.5 232.5t-127.5 190.5t-190.5 127.5t-232.5 47.5t-232.5 -47.5t-190.5 -127.5t-127.5 -190.5t-47.5 -232.5zM627 489l90 91l182 -181l422 422l90 -90l-512 -512zM1374 1350l111 129l393 -328l-111 -131z" />
<glyph unicode="&#xa7;" d="M0 -238v1704q0 71 50 121.5t122 50.5h1704q70 0 121 -51t51 -121v-1704q0 -72 -50.5 -122t-121.5 -50h-526v805h270l41 314h-311v198q0 77 32.5 115.5t122.5 38.5h166v280q-94 13 -241 13q-184 0 -294 -108.5t-110 -305.5v-231h-270v-314h270v-805h-854q-72 0 -122 50 t-50 122z" />
<glyph unicode="&#xa8;" d="M0 -238v1704q0 71 50 121.5t122 50.5h1704q70 0 121 -51t51 -121v-1704q0 -72 -50.5 -122t-121.5 -50h-1704q-72 0 -122 50t-50 122zM227 614q0 -135 67 -249.5t181.5 -181t249.5 -66.5q85 0 157.5 20.5t122.5 56t90.5 83t62.5 102t36.5 112.5t13.5 114t-6 108h-477v-197 h268q-33 -101 -92.5 -149t-175.5 -48q-123 0 -207 86t-84 209t84 209t207 86q109 0 193 -71q7 7 44 47t97 98q-142 129 -334 129q-135 0 -249.5 -67t-181.5 -181.5t-67 -249.5zM1321 580h178v-179h123v179h172v122h-172v175h-123v-175h-178v-122z" />
<glyph unicode="&#xa9;" d="M0 -240v1708q0 70 50 120t120 50h1708q70 0 120 -50t50 -120v-1708q0 -70 -50 -120t-120 -50h-1708q-70 0 -120 50t-50 120zM342 184q197 -125 428 -125q150 0 280.5 47t223.5 126.5t160.5 182.5t100 215.5t32.5 225.5v37q83 59 139 145q-76 -36 -160 -45q93 57 123 156 q-83 -50 -178 -68q-85 88 -205 88q-116 0 -198 -81.5t-82 -198.5q0 -24 8 -64q-173 9 -323.5 86.5t-254.5 206.5q-37 -61 -37 -141q0 -71 33.5 -133t89.5 -101q-64 3 -127 35v-2q0 -101 64.5 -178t161.5 -98q-31 -8 -74 -8q-17 0 -53 4q28 -85 99.5 -139.5t162.5 -55.5 q-150 -119 -348 -119q-46 0 -66 2z" />
<glyph unicode="&#xaa;" d="M0 -240v1708q0 70 50 120t120 50h1708q70 0 120 -50t50 -120v-1708q0 -70 -50 -120t-120 -50h-1708q-70 0 -120 50t-50 120zM328 1143q0 -71 49 -119.5t119 -48.5q69 0 117.5 49t48.5 119q0 69 -48.5 117.5t-117.5 48.5q-70 0 -119 -48.5t-49 -117.5zM350 -80h289v928 h-289v-928zM821 -80h287v459q0 51 6.5 89t24 74t53.5 55t90 19q31 0 55 -8.5t39.5 -20.5t26.5 -33.5t16.5 -40t8.5 -47t3.5 -47t0.5 -48.5v-451h288v508q0 81 -7.5 142.5t-30 120.5t-60 96.5t-100 60t-148.5 22.5q-99 0 -170 -43.5t-102 -105.5h-4v127h-277v-928z" />
<glyph unicode="&#xab;" d="M0 -238v1704q0 71 50 121.5t122 50.5h1704q70 0 121 -51t51 -121v-1704q0 -72 -50.5 -122t-121.5 -50h-1704q-72 0 -122 50t-50 122zM471 283q0 -45 33 -78t78 -33h884q40 0 78 33q33 33 33 78v663q0 45 -33 78q-38 33 -78 33h-884q-40 0 -78 -33q-31 -31 -31 -78z M582 836v110l442 -276l442 276v-110l-442 -277z" />
<glyph unicode="&#xac;" d="M598 102v1194h532q145 0 244 -98t99 -242q0 -65 -39.5 -130t-102.5 -109q84 -39 134.5 -117t50.5 -174q0 -134 -92.5 -229t-225.5 -95h-600zM854 315h297q54 0 91.5 37.5t37.5 91.5q0 53 -37.5 90t-91.5 37h-297v-256zM854 827h256q53 0 90 37.5t37 91.5q0 52 -37.5 89.5 t-89.5 37.5h-256v-256z" />
<glyph unicode="&#xad;" d="M123 819q-72 301 53 458q76 96 199 109q99 10 162 -39q17 -13 28 -30q31 -47 -55 -88q-47 -23 -48 -24q-5 -4 5 -7q15 -4 32 -22.5t30.5 -39t36.5 -39.5t48 -24q20 -4 28 48.5t10 134t8 165.5t29.5 153t66.5 87q31 13 66.5 -7t69 -63t69 -98t72 -113t71 -105.5t73 -77.5 t72.5 -28q57 0 79.5 2t46 -4.5t33 -11t39 -18t64.5 -25.5q39 -14 69 -40.5t48 -61.5t29 -65t21.5 -66.5t15.5 -49.5q21 -52 -17 -216t-112 -326q-25 -55 -57 -142.5t-57.5 -158t-56.5 -140.5t-66.5 -117t-74.5 -61q-32 -12 -59 14.5t-45.5 75.5t-40 108.5t-41.5 111 t-51 85.5t-68 31q-124 -9 -184 -10t-205 6q-56 3 -87.5 6.5t-55 12.5t-33.5 16t-36.5 27.5t-51.5 37.5q-33 22 -48 35t-16.5 24t3.5 19t15 26.5t15 39.5q7 30 39 50.5t68.5 31t103.5 27.5t111 32q87 30 136.5 34t84.5 15q23 7 88.5 24.5t123.5 38.5t116 52q41 22 59.5 32.5 t29.5 21.5t12 16t4.5 21.5t8.5 31.5q6 17 6.5 29.5t-2.5 21.5t-11 18t-16 15.5t-22 18.5t-24 22q-32 32 -79 32.5t-112 -17.5q-14 -3 -22 -5q-47 -10 -71.5 -31t-56 -73t-55.5 -82q-17 -21 -34 -36t-36.5 -23.5t-35 -13t-40 -5.5t-39 -0.5t-44.5 2t-45 2.5q-8 0 -36 1 t-43 1.5t-44.5 3t-48 5.5t-46 10t-46 16t-40.5 22.5t-36.5 30.5t-27 40.5t-19.5 51.5z" />
<glyph unicode="&#xae;" d="M426 16h1196v-170h-1196v170zM512 700v682h213v-682q0 -124 88 -211.5t211 -87.5t211 87.5t88 211.5v682h213v-682q0 -212 -150 -362t-362 -150t-362 150t-150 362z" />
<glyph unicode="&#xaf;" d="M256 16h1536v-170h-1536v170zM256 188v170h1024v-170h-1024zM256 528v172h1536v-172h-1536zM256 870v170h1024v-170h-1024zM256 1212v170h1536v-170h-1536z" />
<glyph unicode="&#xb0;" d="M170 16h172v43h-86v86h86v43h-172v84h256v-340h-256v84zM170 444v76l154 180h-154v84h256v-75l-154 -181h154v-84h-256zM170 1212v84h172v-340h-86v256h-86zM598 16v172h1194v-172h-1194zM598 528v172h1194v-172h-1194zM598 1040v172h1194v-172h-1194z" />
<glyph unicode="&#xb1;" d="M256 16h1536v-170h-1536v170zM256 528v172h1536v-172h-1536zM256 1212v170h1536v-170h-1536zM768 188v170h1024v-170h-1024zM768 870v170h1024v-170h-1024z" />
<glyph unicode="&#xb2;" d="M256 16h1536v-170h-1536v170zM256 188v170h1536v-170h-1536zM256 528v172h1536v-172h-1536zM256 870v170h1536v-170h-1536zM256 1212v170h1536v-170h-1536z" />
<glyph unicode="&#xb3;" d="M256 16h1536v-170h-1536v170zM256 528v172h1536v-172h-1536zM256 1212v170h1536v-170h-1536zM598 188v170h852v-170h-852zM598 870v170h852v-170h-852z" />
<glyph unicode="&#xb4;" d="M512 102v256h238l292 682h-188v256h682v-256h-238l-292 -682h188v-256h-682z" />
<glyph unicode="&#xb5;" d="M340 -63v1021l512 515h686q69 0 118.5 -49.5t49.5 -118.5v-1368q0 -71 -51 -122t-121 -51h-1022q-72 0 -122 51t-50 122zM467 874h469v467zM682 193h256v-256h170v256h256v169h-256v256h-170v-256h-256v-169z" />
<glyph unicode="&#xb6;" d="M172 -238v852l86 852h256l84 -852l426 340v-340l426 340v-340l426 340v-1192h-1704zM342 -68h342v172h-342v-172zM342 274h342v170h-342v-170zM854 -68h340v172h-340v-172zM854 274h850v170h-850v-170zM1364 -68h340v172h-340v-172z" />
<glyph unicode="&#xb7;" d="M166 616q0 174 67.5 332.5t181.5 272.5t272.5 181.5t332.5 67.5t331.5 -67.5t271.5 -181.5t181.5 -272.5t67.5 -332.5t-67.5 -331.5t-181.5 -271.5t-271.5 -181.5t-331.5 -67.5t-332.5 67.5t-272.5 181.5t-181.5 271.5t-67.5 331.5zM336 616q0 -139 54.5 -265.5 t146 -217.5t218 -145t265.5 -54t265.5 54t217.5 145t145 217.5t54 265.5t-54 265.5t-145 218t-217.5 146t-265.5 54.5t-265.5 -54.5t-218 -146t-146 -218t-54.5 -265.5z" />
<glyph unicode="&#xb8;" d="M166 614q0 174 67.5 332.5t181.5 272.5t272.5 181.5t332.5 67.5t331.5 -67.5t271.5 -181.5t181.5 -272.5t67.5 -332.5t-67.5 -331.5t-181.5 -271.5t-271.5 -181.5t-331.5 -67.5t-332.5 67.5t-272.5 181.5t-181.5 271.5t-67.5 331.5zM336 614q0 -139 54.5 -265.5 t146 -217.5t218 -145t265.5 -54t265.5 54t217.5 145t145 217.5t54 265.5t-54 265.5t-145 218t-217.5 146t-265.5 54.5t-265.5 -54.5t-218 -146t-146 -218t-54.5 -265.5zM592 614q0 177 125.5 302.5t302.5 125.5t301.5 -125.5t124.5 -302.5t-124.5 -301.5t-301.5 -124.5 t-302.5 124.5t-125.5 301.5z" />
<glyph unicode="&#xb9;" />
<glyph unicode="&#xc0;" d="M213 -41v334q0 63 44.5 107t107.5 44h104v340h-104q-63 0 -107.5 45.5t-44.5 108.5v334q0 64 44.5 108.5t107.5 44.5h333q63 0 108.5 -44.5t45.5 -108.5v-103h342v103q0 65 44 109t108 44h333q63 0 108.5 -44.5t45.5 -108.5v-334q0 -63 -45.5 -108.5t-108.5 -45.5h-102 v-340h102q63 0 108.5 -44t45.5 -107v-334q0 -64 -45.5 -109t-108.5 -45h-333q-64 0 -108 44.5t-44 109.5v102h-342v-102q0 -64 -45.5 -109t-108.5 -45h-333q-63 0 -107.5 45t-44.5 109zM299 -43q0 -28 20 -48t48 -20h333q28 0 48 20t20 48v334q0 28 -20 47.5t-48 19.5h-333 q-28 0 -48 -19.5t-20 -47.5v-334zM299 938q0 -28 20 -48t48 -20h333q28 0 48 20t20 48v334q0 28 -20 47.5t-48 19.5h-333q-28 0 -48 -19.5t-20 -47.5v-334zM555 444h143q63 0 108.5 -44t45.5 -107v-148h342v148q0 63 44 107t108 44h145v340h-145q-64 0 -108 45t-44 109v145 h-342v-145q0 -63 -45.5 -108.5t-108.5 -45.5h-143v-340zM1278 -43q0 -28 20 -48t48 -20h333q28 0 48 20t20 48v334q0 28 -20 47.5t-48 19.5h-333q-28 0 -48 -19.5t-20 -47.5v-334zM1278 938q0 -28 20 -48t48 -20h333q28 0 48 20t20 48v334q0 28 -20 47.5t-48 19.5h-333 q-28 0 -48 -19.5t-20 -47.5v-334z" />
<glyph unicode="&#xc1;" d="M598 444v340h256v342q0 141 99.5 241.5t240.5 100.5h256v-342h-170q-41 0 -63.5 -39.5t-22.5 -89.5v-213h256v-340h-256v-684h-340v684h-256z" />
<glyph unicode="&#xc2;" d="M170 606q0 57 40.5 98t98.5 41q57 0 97 -41t40 -98t-40 -97t-97 -40q-58 0 -98.5 40t-40.5 97zM170 1161q0 57 40.5 97t98.5 40q57 0 97 -40t40 -97q0 -58 -40 -98.5t-97 -40.5q-59 0 -99 40t-40 99zM186 53q0 51 35.5 87t87.5 36q51 0 87 -36t36 -87t-36 -87t-87 -36 t-87 36t-36 87zM586 -39v184h1292v-184h-1292zM586 514v184h1292v-184h-1292zM586 1069v184h1292v-184h-1292z" />
<glyph unicode="&#xc3;" d="M170 -240v1536q0 70 51 121t121 51h1364q70 0 121 -51t51 -121v-1024q0 -70 -50.5 -120t-121.5 -50h-1194zM553 1020q0 -54 38 -91.5t91 -37.5q54 0 91.5 37.5t37.5 91.5t-37.5 91.5t-91.5 37.5q-53 0 -91 -37.5t-38 -91.5zM618 502q5 -7 20.5 -22.5t57.5 -45t92 -54 t129.5 -43t165.5 -18.5q87 0 166.5 18.5t130 43t92.5 54t57.5 45t20.5 22.5l-129 108l-14.5 -14.5t-39.5 -29t-68 -38t-93 -28t-123 -13.5q-61 0 -117.5 12.5t-91.5 27.5t-66.5 35.5t-41 29.5t-17.5 17l-1 1l-66 -55zM1356 1020q0 -54 37.5 -91.5t91.5 -37.5t91.5 37.5 t37.5 91.5t-37.5 91.5t-91.5 37.5t-91.5 -37.5t-37.5 -91.5z" />
<glyph unicode="&#xc4;" d="M170 -92v389q0 60 43 103.5t104 43.5h390q60 0 103.5 -43.5t43.5 -103.5v-109h340v109q0 60 43 103.5t104 43.5h111v340h-111q-61 0 -104 43t-43 105v389q0 60 43 103.5t104 43.5h390q60 0 103.5 -43.5t43.5 -103.5v-389q0 -61 -43.5 -104.5t-103.5 -43.5h-111v-340h111 q60 0 103.5 -43.5t43.5 -103.5v-389q0 -61 -43.5 -104.5t-103.5 -43.5h-390q-61 0 -104 43t-43 105v112h-340v-112q0 -61 -43.5 -104.5t-103.5 -43.5h-390q-61 0 -104 43t-43 105zM170 1069q0 165 117 282t282 117q164 0 281 -117.5t117 -281.5t-117 -281.5t-281 -117.5 q-165 0 -282 117t-117 282zM330 1069q0 -100 69.5 -170t169.5 -70t170 70t70 170t-70 170t-170 70t-169.5 -70t-69.5 -170zM340 -70h344v344h-344v-344zM1364 -70h344v344h-344v-344zM1364 954h344v344h-344v-344z" />
<glyph unicode="&#xc5;" d="M170 -61v923l612 -354l357 209l739 -426v-352h-1708zM170 1081v209l612 -356l357 209l739 -426v-209l-739 426l-357 -205z" />
<glyph unicode="&#xc6;" d="M512 977q0 212 150 362t362 150t362 -150t150 -362q0 -112 -45 -211.5t-125 -171.5v-854l-342 313l-342 -313v854q-80 72 -125 171.5t-45 211.5zM674 977q0 -146 102 -248t248 -102q145 0 247.5 102t102.5 248q0 145 -102.5 247.5t-247.5 102.5q-146 0 -248 -102.5 t-102 -247.5z" />
<glyph unicode="&#xc7;" d="M170 -49v1327q0 78 56 134t134 56h1328q78 0 134 -56t56 -134v-1327q0 -78 -56 -134.5t-134 -56.5h-283h-96h-570h-141h-238q-78 0 -134 56.5t-56 134.5zM455 614l391 -178l178 -391l178 391l391 178l-391 179l-178 391l-178 -391z" />
<glyph unicode="&#xc8;" d="M360 -92v1192q0 60 43.5 103.5t104.5 43.5h295q0 91 64.5 156t156.5 65t156.5 -65t64.5 -156h295q61 0 104.5 -43.5t43.5 -103.5v-1192q0 -60 -43.5 -104t-104.5 -44h-1032q-61 0 -104.5 44t-43.5 104zM508 -92h1032v1192h-147v-148h-738v148h-147v-1192zM950 1247 q0 -31 21.5 -52t52.5 -21t52.5 21t21.5 52t-21.5 52.5t-52.5 21.5t-52.5 -21.5t-21.5 -52.5z" />
<glyph unicode="&#xc9;" d="M360 -92v1192q0 60 43.5 103.5t104.5 43.5h295q0 91 64.5 156t156.5 65t156.5 -65t64.5 -156h295q61 0 104.5 -43.5t43.5 -103.5v-266l-707 -707l-324 324l82 84l242 -242l559 559v248h-147v-148h-738v148h-147v-1192h1032v612l148 148v-760q0 -60 -43.5 -104t-104.5 -44 h-1032q-61 0 -104.5 44t-43.5 104zM950 1247q0 -31 21.5 -52t52.5 -21t52.5 21t21.5 52t-21.5 52.5t-52.5 21.5t-52.5 -21.5t-21.5 -52.5z" />
<glyph unicode="&#xca;" d="M256 -68v1194q0 70 50 120t120 50h86v172h170v-172h684v172h170v-172h86q69 0 119.5 -50t50.5 -120v-1194q0 -71 -50 -121.5t-120 -50.5h-1196q-70 0 -120 50.5t-50 121.5zM426 -68h1196v938h-1196v-938zM1024 102v426h426v-426h-426z" />
<glyph unicode="&#xcb;" d="M172 80q41 -6 82 -6q245 0 434 149q-114 3 -203 71t-123 173q35 -6 66 -6q48 0 92 12q-121 23 -200.5 119t-79.5 223v2q73 -39 159 -39q-71 45 -113 122t-42 167q0 99 47 176q131 -161 318.5 -257.5t402.5 -108.5q-11 50 -11 79q0 146 103 248.5t246 102.5 q153 0 258 -111q119 24 221 86q-42 -128 -154 -195q100 11 201 58q-70 -107 -174 -182v-45q0 -117 -29.5 -235t-85 -229t-142 -207.5t-193.5 -169t-247 -114t-296 -41.5q-294 0 -537 158z" />
<glyph unicode="&#xcc;" d="M360 -94v1192q0 60 43.5 103.5t104.5 43.5h295q0 91 64.5 156t156.5 65t156.5 -65t64.5 -156h295q61 0 104.5 -43.5t43.5 -103.5v-1192q0 -60 -43.5 -104t-104.5 -44h-1032q-61 0 -104.5 44t-43.5 104zM508 -94h1032v1192h-147v-148h-738v148h-147v-1192zM655 201v104 h461v-104h-461zM655 578v104h738v-104h-738zM950 1245q0 -31 21.5 -52.5t52.5 -21.5t52.5 21.5t21.5 52.5t-21.5 52.5t-52.5 21.5t-52.5 -21.5t-21.5 -52.5zM1235 252q0 34 23 57t55 23q34 0 57 -23t23 -57q0 -32 -23 -55t-57 -23q-32 0 -55 23t-23 55z" />
<glyph unicode="&#xcd;" d="M172 -76v441q0 67 48 115t116 48h92v172h-92q-68 0 -116 48t-48 116v439q0 69 48 117t116 48h440q68 0 116 -48t48 -117v-84h170v84q0 69 48.5 117t117.5 48h438q68 0 116 -48t48 -117v-439q0 -68 -48 -116t-116 -48h-92v-172h92q68 0 116 -48t48 -115v-441 q0 -68 -48 -116t-116 -48h-438q-69 0 -117.5 48t-48.5 116v99h-170v-99q0 -68 -48 -116t-116 -48h-440q-68 0 -116 48t-48 116zM342 -70h428v430h-428v-430zM342 868h428v430h-428v-430zM598 528h178q68 0 116 -48t48 -115v-170h170v170q0 68 48.5 115.5t117.5 47.5h176v172 h-176q-69 0 -117.5 48t-48.5 116v183h-170v-183q0 -68 -48 -116t-116 -48h-178v-172zM1280 -70h430v430h-430v-430zM1280 868h430v430h-430v-430z" />
<glyph unicode="&#xce;" d="M176 614q101 258 332 419t516 161t516 -161t332 -419q-101 -257 -332 -418t-516 -161t-516 161t-332 418zM639 614q0 -160 112.5 -272.5t272.5 -112.5t272.5 112.5t112.5 272.5t-112.5 272.5t-272.5 112.5t-272.5 -112.5t-112.5 -272.5zM793 614q0 95 68 163.5t163 68.5 t163 -68.5t68 -163.5t-68 -163t-163 -68t-163 68t-68 163z" />
<glyph unicode="&#xcf;" d="M172 1370q0 40 28 68t66 28h332q40 0 67 -28t27 -68q0 -170 56 -336q16 -57 -25 -98l-209 -207q103 -201 263.5 -361.5t361.5 -263.5l207 209q41 41 98 25q163 -55 336 -55q40 0 68 -27.5t28 -67.5v-331q0 -39 -28 -67t-68 -28q-218 0 -426.5 58t-385 161.5t-325 252 t-252 325t-161.5 385t-58 426.5z" />
<glyph unicode="&#xd0;" d="M170 614q0 139 43 269.5t122 235.5t184 184t235.5 122t269.5 43q173 0 331 -67.5t272.5 -182t182.5 -273t68 -331.5q0 -139 -43 -269.5t-122 -235.5t-184 -184t-235.5 -122t-269.5 -43t-269.5 43t-235.5 122t-184 184t-122 235.5t-43 269.5zM512 272q85 -125 220 -198.5 t292 -73.5t292 73.5t220 198.5q-1 61 -56.5 113.5t-137 84t-166.5 49.5t-152 18t-152 -18t-166.5 -49.5t-137 -84t-56.5 -113.5zM768 956q0 -106 75 -181t181 -75t181 75t75 181t-75 181t-181 75t-181 -75t-75 -181z" />
<glyph unicode="&#xd1;" d="M170 614q0 192 137 328.5t330 136.5q149 0 269.5 -86.5t168.5 -222.5h803v-311h-156v-309h-311v309h-336q-48 -136 -168.5 -222.5t-269.5 -86.5q-194 0 -330.5 135.5t-136.5 328.5zM481 614q0 -64 45.5 -109.5t110.5 -45.5q63 0 108.5 45.5t45.5 109.5t-45.5 110 t-108.5 46q-65 0 -110.5 -46t-45.5 -110z" />
<glyph unicode="&#xd2;" d="M86 612q0 144 98 242q82 82 198.5 96.5t213.5 -41.5l131 131q-58 97 -43.5 213.5t98.5 200.5q100 100 242 100t242 -100q84 -84 98.5 -199.5t-43.5 -212.5l133 -133q96 56 212 41.5t198 -96.5q100 -100 100 -240.5t-100 -240.5q-101 -101 -242 -101q-94 0 -168 45 l-133 -133q56 -97 41.5 -212t-96.5 -197q-101 -101 -242 -101t-242 101q-82 82 -96.5 197.5t43.5 211.5l-133 133q-82 -45 -170 -45q-141 0 -242 101q-98 98 -98 239zM254 612q0 -69 51 -120q49 -50 121 -50t121 50q51 51 51 121.5t-51 121.5q-49 49 -121 49t-121 -49 q-51 -51 -51 -123zM717 436l129 -131q82 51 178 51t178 -51l129 129q-51 83 -51 179.5t51 179.5l-127 127q-84 -52 -180 -52q-93 0 -180 52l-127 -129q49 -82 49 -177.5t-49 -177.5zM850 1211.5q0 -70.5 51 -121.5q52 -52 123 -52t123 52q51 51 51 121.5t-51 121.5t-123 51 t-123 -51t-51 -121.5zM852 15.5q0 -70.5 51 -121.5q49 -50 121 -50t121 50q51 51 51 121.5t-51 121.5q-49 49 -121 49t-121 -49q-51 -51 -51 -121.5zM1450 613.5q0 -70.5 51 -121.5q49 -50 120 -50t122 50q51 51 51 121.5t-51 121.5q-49 49 -121 49t-121 -49 q-51 -51 -51 -121.5z" />
<glyph unicode="&#xd3;" d="M170 102l2 940q0 71 49 120.5t121 49.5h340v170q0 72 50 122t122 50h340q72 0 122 -50t50 -122v-170h340q72 0 122 -49.5t50 -120.5v-940q0 -71 -50 -120.5t-122 -49.5h-1364q-72 0 -122 49.5t-50 120.5zM854 1212h340v170h-340v-170z" />
<glyph unicode="&#xd4;" d="M219 870l256 138l49 286l289 -39l209 203l209 -203l287 43l51 -286l258 -135l-127 -263l129 -260l-256 -137l-49 -287l-289 39l-209 -202l-209 202l-289 -43l-51 287l-256 135l127 262zM322 381l192 -100l33 -17l6 -37l39 -215l215 33l37 4l26 -24l156 -152l156 152 l26 26l37 -6l215 -29l37 213l6 37l33 19l190 102l-94 195l-18 32l16 33l96 197l-192 100l-33 17l-6 36l-39 213l-215 -30l-37 -4l-26 24l-156 152l-156 -152l-26 -26l-37 6l-215 28l-37 -213l-6 -37l-33 -18l-190 -102l94 -195l16 -33l-16 -32zM651 612l64 66l231 -232 l385 385l66 -65l-451 -449z" />
<glyph unicode="&#xd5;" d="M854 102q0 70 50 120t120 50t120 -50t50 -120t-50 -120t-120 -50t-120 50t-50 120zM854 614q0 70 50 120t120 50t120 -50t50 -120t-50 -120t-120 -50t-120 50t-50 120zM854 1126q0 70 50 120t120 50t120 -50t50 -120t-50 -120t-120 -50t-120 50t-50 120z" />
<glyph unicode="&#xd6;" horiz-adv-x="1228" d="M356 14h168v-168h-168v168zM356 188v168h168v-168h-168zM356 528v170h168v-170h-168zM356 870v168h168v-168h-168zM356 1212v168h168v-168h-168zM698 14h170v-168h-170v168zM698 188v168h170v-168h-170zM698 528v170h170v-170h-170zM698 870v168h170v-168h-170zM698 1212 v168h170v-168h-170z" />
<glyph unicode="&#xd7;" horiz-adv-x="1845" d="M68 616q0 177 125.5 301.5t302.5 124.5h340v-168h-340q-107 0 -182.5 -76t-75.5 -182t75.5 -182t182.5 -76h340v-168h-340q-177 0 -302.5 124.5t-125.5 301.5zM580 530v172h684v-172h-684zM1008 190v168h340q107 0 182.5 76t75.5 182t-75.5 182t-182.5 76h-340v168h340 q177 0 302.5 -124.5t125.5 -301.5t-125.5 -301.5t-302.5 -124.5h-340z" />
<glyph unicode="&#xd8;" d="M170 614q0 139 43 269.5t122 235.5t184 184t235.5 122t269.5 43t269.5 -43t235.5 -122t184 -184t122 -235.5t43 -269.5t-43 -269.5t-122 -235.5t-184 -184t-235.5 -122t-269.5 -43t-269.5 43t-235.5 122t-184 184t-122 235.5t-43 269.5zM342 614q0 -139 54 -265.5 t145 -217.5t217.5 -145t265.5 -54t265.5 54t217.5 145t145 217.5t54 265.5t-54 265.5t-145 217.5t-217.5 145t-265.5 54t-265.5 -54t-217.5 -145t-145 -217.5t-54 -265.5zM662 252l362 362v512q100 0 194.5 -38t167.5 -111q99 -99 134 -231t0 -263.5t-134 -230.5 q-151 -149 -362 -149t-362 149z" />
<glyph unicode="&#xd9;" d="M96 -156v346q0 69 49.5 118.5t118.5 49.5h88v193q0 62 43.5 105.5t106.5 43.5h446v170h-88q-69 0 -117.5 49.5t-48.5 118.5v346q0 69 48.5 118.5t117.5 49.5h346q70 0 119 -49.5t49 -118.5v-346q0 -69 -49 -118.5t-119 -49.5h-86v-170h447q63 0 106 -43.5t43 -105.5v-193 h88q69 0 118.5 -49.5t49.5 -118.5v-346q0 -69 -49.5 -118.5t-118.5 -49.5h-346q-69 0 -118.5 49.5t-49.5 118.5v346q0 69 49.5 118.5t118.5 49.5h88v170h-1024v-170h88q69 0 118.5 -49.5t49.5 -118.5v-346q0 -69 -49.5 -118.5t-118.5 -49.5h-346q-69 0 -118.5 49.5 t-49.5 118.5zM266 -154h342v342h-342v-342zM862 1040h344v342h-344v-342zM1460 -154h342v342h-342v-342z" />
<glyph unicode="&#xda;" d="M256 -154v1364q0 70 50 120t120 50h342q0 106 75 181t181 75t181 -75t75 -181h342q70 0 120 -50t50 -120v-1364q0 -72 -49.5 -122t-120.5 -50h-1196q-71 0 -120.5 50t-49.5 122zM426 -154h1196v1364h-172v-170h-852v170h-172v-1364zM756 868h536l-178 -180l133 -491 l-223 -226l-223 226l133 491zM938 1380q0 -35 25.5 -59.5t60.5 -24.5t60.5 24.5t25.5 59.5t-25.5 60.5t-60.5 25.5t-60.5 -25.5t-25.5 -60.5z" />
<glyph unicode="&#xdb;" d="M170 840l854 532l854 -532l-854 -533l-532 332v-629h-150v723zM651 88v303l373 -233l604 383v-303l-604 -381z" />
<glyph unicode="&#xdc;" d="M172 614q0 174 67.5 332t181.5 272.5t272 182t331 67.5q139 0 269.5 -43t235.5 -122t184 -184t122 -235.5t43 -269.5t-43 -269.5t-122 -235.5t-184 -184t-235.5 -122t-269.5 -43q-173 0 -331 67.5t-272 182t-181.5 272.5t-67.5 332zM342 614q0 -139 54 -265.5t145 -217.5 t217.5 -145t265.5 -54t265.5 54t218 145t146 217.5t54.5 265.5t-54.5 265.5t-146 217.5t-218 145t-265.5 54t-265.5 -54t-217.5 -145t-145 -217.5t-54 -265.5zM768 272v172h342v84h-256q-35 0 -60.5 25.5t-25.5 60.5v256q0 35 25.5 60.5t60.5 25.5h86v84h170v-84h170v-172 h-340v-84h256q35 0 59.5 -25.5t24.5 -60.5v-256q0 -35 -24.5 -60.5t-59.5 -25.5h-86v-84h-170v84h-172z" />
<glyph unicode="&#xdd;" d="M170 186q0 124 66 226.5t174 154.5l405 408q25 25 59.5 25t59.5 -25q37 -37 20 -90l293 295q26 25 61 25t60 -25q41 -41 16 -97l349 349q25 25 59.5 25t60.5 -25q25 -25 25 -59.5t-25 -59.5l-198 -199q25 19 55.5 16.5t52.5 -24.5q26 -25 26 -60t-26 -61l-577 -577 q40 6 69 -23q26 -26 26 -61t-26 -60l-307 -307q-58 -89 -151.5 -141t-202.5 -52q-175 0 -299.5 123.5t-124.5 298.5zM342 186q0 -103 74 -176t178 -73t178 73t74 176q0 104 -74 178t-178 74t-178 -74t-74 -178zM342 867.5q0 35.5 25 60.5l251 250q25 25 59.5 25t59.5 -25 t25 -59.5t-25 -59.5l-250 -252q-26 -25 -60.5 -25t-59.5 25t-25 60.5z" />
<glyph unicode="&#xde;" d="M170 522l254 41l27 -157l-254 -41zM184 938l86 135l273 -172l-86 -135zM602 575q0 174 124 298t298 124q175 0 298.5 -123.5t123.5 -298.5q0 -106 -48.5 -197t-131.5 -149v-137q0 -25 -17.5 -42t-42.5 -17h-362q-25 0 -42.5 17t-17.5 42v137q-84 58 -133 149t-49 197z M610 1378l150 58l117 -299l-150 -58zM844 -88h362v-59q0 -25 -18 -43.5t-43 -18.5h-240q-26 0 -43.5 18.5t-17.5 43.5v59zM1182 1143l129 295l147 -66l-129 -295zM1507 922l289 141l70 -145l-289 -140zM1604 403l22 160l252 -35l-23 -159z" />
<glyph unicode="&#xdf;" d="M170 188v1194q0 35 25.5 60.5t60.5 25.5h1110q35 0 59.5 -25.5t24.5 -60.5v-768q0 -35 -24.5 -60.5t-59.5 -25.5h-854zM512 188v170h1110v768h170q35 0 60.5 -25.5t25.5 -60.5v-1280l-342 342h-938q-35 0 -60.5 25.5t-25.5 60.5z" />
<glyph unicode="&#xe0;" d="M199 393.5q-58 220.5 0 441t221 384.5q163 163 383 221t440.5 0t384.5 -221q163 -164 221 -384.5t0 -440.5t-221 -384q-164 -163 -384 -221t-440 0t-384 221q-163 163 -221 383.5zM363.5 438q46.5 -176 177.5 -307t307 -177.5t352 0t307 177.5t177.5 307t0 352.5 t-177.5 307.5t-307 177.5t-352 0t-307 -177.5t-177.5 -307.5t0 -352.5zM662 373l241 241l-241 242l120 121l242 -242l242 242l120 -121l-241 -242l241 -241l-120 -121l-242 242l-242 -242z" />
<glyph unicode="&#xe1;" d="M342 -238v1022v170l512 512h170h512h84h86v-1704h-86h-84h-1024h-84h-86zM512 -68h1024v1364h-512v-512h-512v-852zM682 104v172h688v-172h-688zM682 444v172h688v-172h-688z" />
<glyph unicode="&#xe2;" d="M496 53h1196v-170h-1196v170zM496 821h342v512h512v-512h342l-598 -598z" />
<glyph unicode="&#xe3;" d="M342 0v170q0 65 49 122.5t125.5 96.5t169.5 67.5t180 42t158 13.5t158 -13.5t180 -42t169.5 -67.5t125.5 -96.5t49 -122.5v-170h-1364zM682 1024q0 141 100.5 240.5t241.5 99.5t241.5 -99.5t100.5 -240.5t-100.5 -241.5t-241.5 -100.5t-241.5 100.5t-100.5 241.5z" />
<glyph unicode="&#xe4;" d="M541 252l362 362l-362 363l121 121l362 -363l362 363l121 -121l-362 -363l362 -362l-121 -121l-362 363l-362 -363z" />
<glyph unicode="&#xe5;" d="M172 614q0 139 43 269.5t122 235.5t184 184t235.5 122t269.5 43t269.5 -43t235.5 -122t184 -184t122 -235.5t43 -269.5t-43 -269.5t-122 -235.5t-184 -184t-235.5 -122t-269.5 -43t-269.5 43t-235.5 122t-184 184t-122 235.5t-43 269.5zM344 614q0 -139 54 -265.5 t145 -217.5t217.5 -145t265.5 -54t265.5 54t217.5 145t145 217.5t54 265.5t-54 265.5t-145 217.5t-217.5 145t-265.5 54t-265.5 -54t-217.5 -145t-145 -217.5t-54 -265.5zM940 528v512h129v-446l383 -229l-63 -105z" />
<glyph unicode="&#xe6;" horiz-adv-x="2050" d="M340 -162v1362q0 54 39.5 93.5t93.5 39.5h252v127h170q0 56 37 92.5t92 36.5q54 0 91.5 -37t37.5 -92h170v-127h254q55 0 93 -39t38 -94v-1362q0 -54 -38 -91.5t-93 -37.5h-1104q-54 0 -93.5 37.5t-39.5 91.5zM426 -162q0 -18 14 -30.5t33 -12.5h1104q20 0 32.5 12 t12.5 31v1362q0 19 -12.5 33t-32.5 14h-254v-129h-598v129h-252q-19 0 -33 -14t-14 -33v-1362zM786 991h480l-160 -160l119 -440l-199 -198l-201 198l121 440zM795 135l59 62l170 -170l311 311l62 -59l-373 -373zM979 1460q0 -18 13.5 -31.5t31.5 -13.5t30.5 13.5t12.5 31.5 q0 16 -12.5 29.5t-30.5 13.5t-31.5 -13.5t-13.5 -29.5z" />
<glyph unicode="&#xe7;" d="M84 947q0 33 29 50l839 525q29 20 72 20q39 0 72 -20l839 -525q29 -17 29 -50t-29 -52l-313 -195v-274h2q0 -64 -48 -135.5t-126.5 -131.5t-192.5 -99.5t-233 -39.5q-120 0 -231.5 40.5t-196.5 105.5v110q13 -8 31 -25t24 -22q80 -59 177.5 -91t195.5 -32q99 0 197 32.5 t176 90.5q113 86 141 189v229l-442 -274q-33 -23 -72 -23q-36 0 -74 23l-440 274v-520h2q46 -17 51 -53l25 -264q3 -27 -15 -47.5t-45 -20.5h-120q-26 0 -44.5 21t-15.5 47l27 266q3 47 51 53v571l-313 195q-29 19 -29 52zM190 946l297 -184l443 280l74 -55h-3l-434 -274 l430 -269q11 -8 27 -8t27 8l807 502l-807 504q-16 8 -27 8t-27 -8zM510 426z" />
<glyph unicode="&#xe8;" d="M256 614q0 209 103 385.5t279.5 279.5t385.5 103q267 0 479 -168l121 121q58 -47 121 -121l-121 -120q168 -212 168 -480q0 -209 -103 -385.5t-279.5 -279.5t-385.5 -103t-386 103t-279.5 279.5t-102.5 385.5zM426 614q0 -122 47.5 -232t127.5 -190t190.5 -127t232.5 -47 t232.5 47t190.5 127t127.5 190t47.5 232t-47.5 233t-127.5 191t-190.5 127t-232.5 47t-232.5 -47t-190.5 -127t-127.5 -191t-47.5 -233zM768 1468v170h512v-170h-512zM938 530v512h172v-512h-172z" />
<glyph unicode="&#xe9;" d="M86 270q0 71 50 121.5t120 50.5q25 0 43 -6l389 387q-6 21 -6 45q0 70 50.5 120t121.5 50q69 0 119.5 -50t50.5 -120q0 -24 -6 -45l217 -217q21 6 45 6t45 -6l303 303q-6 14 -6 45q0 69 50 119.5t120 50.5t120 -50.5t50 -119.5q0 -71 -50 -121.5t-120 -50.5q-25 0 -43 6 l-305 -303q6 -18 6 -43q0 -71 -50 -121.5t-120 -50.5t-120 50.5t-50 121.5q0 31 6 43l-219 220q-14 -7 -43 -7t-45 7l-389 -390q6 -21 6 -45q0 -70 -50 -120t-120 -50t-120 50t-50 120z" />
<glyph unicode="&#xea;" d="M260 -88v1212q0 120 37.5 219t110.5 162q78 66 164.5 98.5t199.5 32.5h873q63 0 107 -44t44 -107v-1233q0 -63 -44 -107.5t-107 -44.5h-19v170v1198h-930q-8 0 -21.5 -1t-49 -12.5t-62.5 -33.5q-29 -22 -51.5 -53t-30.5 -52l-8 -20h830q63 0 107 -45t44 -108v-549v-324 v-170v-170v-18q0 -63 -44 -107.5t-107 -44.5h-891q-63 0 -107.5 44.5t-44.5 107.5z" />
<glyph unicode="&#xeb;" d="M86 270q0 71 50 121.5t120 50.5q25 0 43 -6l309 307q-30 55 -30 125q0 114 80 194.5t194 80.5t194 -80.5t80 -194.5q0 -65 -28 -123l137 -139q21 6 45 6t45 -6l303 303q-6 14 -6 45q0 69 50 119.5t120 50.5t120 -50.5t50 -119.5q0 -71 -50 -121.5t-120 -50.5q-25 0 -43 6 l-305 -303q6 -18 6 -43q0 -71 -50 -121.5t-120 -50.5t-120 50.5t-50 121.5q0 31 6 43l-139 138q-60 -29 -125 -29q-63 0 -123 29l-309 -308q6 -21 6 -45q0 -70 -50 -120t-120 -50t-120 50t-50 120zM731 868q0 -51 35.5 -85.5t85.5 -34.5t85.5 34.5t35.5 85.5q0 49 -35.5 84 t-85.5 35t-85.5 -35t-35.5 -84z" />
<glyph unicode="&#xec;" d="M211 614q0 221 109 408t296 296t408 109t408 -109t296 -296t109 -408t-109 -408t-296 -296t-408 -109t-408 109t-296 296t-109 408zM297 614q0 -164 67.5 -308.5t188.5 -246.5v107q0 67 50.5 122t126 86t152.5 47.5t142 16.5q50 0 110 -9.5t124 -31.5t116.5 -52.5 t86.5 -77.5t34 -101v-107q121 102 188.5 246.5t67.5 308.5q0 197 -97.5 364.5t-265 265t-364.5 97.5t-364.5 -97.5t-265 -265t-97.5 -364.5zM633 -6q206 -115 391 -115t391 115h-6v172q0 53 -70 98.5t-157.5 67.5t-157.5 22q-71 0 -158.5 -22t-157 -67t-69.5 -99v-172h-6z M766 793q0 107 75.5 182.5t182.5 75.5q106 0 181 -75.5t75 -182.5q0 -109 -75 -185t-181 -76q-107 0 -182.5 76t-75.5 185zM850 793q0 -74 50.5 -124.5t123.5 -50.5q72 0 122 51t50 124q0 72 -50.5 123t-121.5 51q-72 0 -123 -51t-51 -123z" />
<glyph unicode="&#xed;" d="M342 -240v1704v4h1194q70 0 120 -50.5t50 -121.5v-1364q0 -71 -50 -121.5t-120 -50.5h-1024h-170zM512 614l213 127l213 -127v682h-426v-682z" />
<glyph unicode="&#xee;" horiz-adv-x="2050" d="M84 217v1120h680q156 0 258 -116q102 116 258 116h680v-1116q0 -107 -75.5 -182.5t-182.5 -75.5h-578l-100 -100l-98 100h-586q-106 0 -181 74t-75 180zM254 217q0 -35 25.5 -60.5t60.5 -25.5h596v862q0 13 2 19q-8 66 -57.5 111.5t-116.5 45.5h-510v-952zM397 356v129 h375v-129h-375zM397 612v129h375v-129h-375zM397 868v129h375v-129h-375zM1106 1012q2 -6 2 -17v-864h594q37 0 63.5 26.5t26.5 63.5v948h-512q-67 0 -116.5 -45.5t-57.5 -111.5zM1284 356v129h375v-129h-375zM1284 612v129h375v-129h-375zM1284 868v129h375v-129h-375z" />
<glyph unicode="&#xef;" d="M340 33v86l170 172v428q0 201 103 350t282 191v57q0 54 37.5 91.5t91.5 37.5t91.5 -37.5t37.5 -91.5v-57q181 -42 283 -190t102 -351v-428l170 -172v-86h-1368zM717 297h307v125h-307v-125zM717 553h614v125h-614v-125zM717 809h614v125h-614v-125zM852 -51h344 q0 -71 -51 -121.5t-121 -50.5t-121 50.5t-51 121.5z" />
<glyph unicode="&#xf0;" d="M168 614q0 139 43 269.5t122 235.5t184 184t235.5 122t269.5 43t269.5 -43t235.5 -122t184 -184t122 -235.5t43 -269.5t-43 -269.5t-122 -235.5t-184 -184t-235.5 -122t-269.5 -43t-269.5 43t-235.5 122t-184 184t-122 235.5t-43 269.5zM936 188h172v512h-172v-512z M936 870h172v170h-172v-170z" />
<glyph unicode="&#xf1;" d="M170 614q0 139 43 269.5t122 235.5t184 184t235.5 122t269.5 43t269.5 -43t235.5 -122t184 -184t122 -235.5t43 -269.5t-43 -269.5t-122 -235.5t-184 -184t-235.5 -122t-269.5 -43t-269.5 43t-235.5 122t-184 184t-122 235.5t-43 269.5zM342 614q0 -139 54 -265.5 t145 -217.5t217.5 -145t265.5 -54t265.5 54t217.5 145t145 217.5t54 265.5t-54 265.5t-145 217.5t-217.5 145t-265.5 54t-265.5 -54t-217.5 -145t-145 -217.5t-54 -265.5zM938 188v512h172v-512h-172zM938 870v170h172v-170h-172z" />
<glyph unicode="&#xf2;" d="M342 18v86l170 170v428q0 201 102 349t281 190v57q0 54 37.5 91.5t91.5 37.5t90.5 -37.5t36.5 -91.5v-57q181 -42 283 -190t102 -349v-428l170 -170v-86h-1364zM682 190h684v512q0 163 -93 273t-249 110t-249 -110t-93 -273v-512zM854 -66h340q0 -71 -50 -121.5 t-120 -50.5t-120 50.5t-50 121.5z" />
<glyph unicode="&#xf3;" d="M170 -324v1536q0 70 51 121t121 51h1364q70 0 121 -51t51 -121v-1024q0 -70 -50.5 -120t-121.5 -50h-1194zM342 18l170 170h1194v1024h-1364v-1194z" />
<glyph unicode="&#xf4;" d="M256 16v172h598v170h170v-512h-170v170h-598zM256 528v172h256v170h170v-512h-170v170h-256zM256 1040v172h938v170h172v-512h-172v170h-938zM854 528v172h938v-172h-938zM1194 16v172h598v-172h-598zM1536 1040v172h256v-172h-256z" />
<glyph unicode="&#xf5;" d="M170 102v342q71 0 121.5 50t50.5 120q0 71 -50 120.5t-122 49.5v342q0 70 50.5 120t121.5 50h1364q71 0 121.5 -50t50.5 -120v-342q-71 0 -121.5 -50t-50.5 -120t50.5 -120t121.5 -50v-342q0 -70 -50.5 -120t-121.5 -50h-1364q-71 0 -121.5 50t-50.5 120zM530 784 l281 -227l-92 -352l305 196l305 -196l-92 352l281 227l-363 23l-131 336l-131 -336z" />
<glyph unicode="&#xf6;" d="M264 817q0 113 44 216t118 177t177 118t216 44q112 0 215 -44t177.5 -118t118.5 -177t44 -216q0 -206 -135 -360l25 -23h67l426 -428l-127 -127l-428 426v68l-22 24q-154 -135 -361 -135q-113 0 -216 44t-177 118.5t-118 177.5t-44 215zM434 817q0 -160 112.5 -271.5 t272.5 -111.5t271.5 111.5t111.5 271.5t-111.5 272.5t-271.5 112.5t-272.5 -112.5t-112.5 -272.5z" />
<glyph unicode="&#xf7;" d="M170 614q0 217 101.5 405t277.5 306t389 139v-260q-218 -31 -365 -198.5t-147 -391.5q0 -122 47.5 -232.5t127.5 -190.5t190.5 -127.5t232.5 -47.5q138 0 259.5 60t205.5 164l221 -129q-118 -163 -298.5 -257t-387.5 -94q-139 0 -269.5 43t-235.5 122t-184 184 t-122 235.5t-43 269.5zM1110 1204v260q212 -21 388 -139t278 -306t102 -405q0 -177 -76 -348l-221 131q41 112 41 217q0 224 -147 391.5t-365 198.5z" />
<glyph unicode="&#xf8;" d="M174 250q39 194 152 321q40 43 86 78q62 37 86 47q38 18 84 33q74 18 104 21v182l154 -144l186 -174q-94 -88 -186 -174l-154 -145v186q-38 0 -104 -4q-50 -6 -84 -14q-27 -5 -86 -27q-39 -15 -86 -43q-91 -59 -152 -143zM412 188h86h84v-256h1022l2 2v1364q0 2 -2 2 h-1022v-258h-84h-86v428h1194q70 0 120 -50.5t50 -121.5v-1364q0 -71 -50 -121.5t-120 -50.5h-1194v426zM844 119v168h590v-168h-590zM844 932v168h590v-168h-590zM1137 526v168h297v-168h-297z" />
<glyph unicode="&#xf9;" d="M178 803l608 53l238 561l238 -561l608 -53l-461 -400l137 -596l-522 318l-522 -318l137 596z" />
<glyph unicode="&#xfa;" d="M80 193v1024h340v-1024h-340zM592 193v854q0 69 50 119.5t120 50.5h768q53 0 95 -29t63 -76l256 -602q12 -27 12 -61v-164v-6q0 -71 -50 -122t-120 -51h-539l82 -389l2 -26q0 -52 -37 -92l-92 -88l-561 561q-49 49 -49 121z" />
<glyph unicode="&#xfb;" d="M346 567q0 134 53 254t148 211l125 -117q-71 -69 -110.5 -159t-39.5 -189q0 -184 126 -323t315 -168v325l401 -370l-401 -379v256q-172 20 -313 112t-222.5 236t-81.5 311zM686 1151l401 379v-254q172 -20 313 -112.5t222.5 -237.5t81.5 -312q0 -133 -52.5 -252 t-146.5 -210l-125 116q69 69 108.5 159t39.5 187q0 185 -126 324t-315 168v-324z" />
<glyph unicode="&#xfc;" d="M170 614l854 768l854 -768h-256v-682h-428v512h-340v-512h-428v682h-256z" />
<glyph unicode="&#xfd;" d="M88 6l188 193q-134 246 -93.5 527t239.5 482q185 183 441.5 232.5t490.5 -49.5l-60 -142q-191 81 -402 40.5t-360 -191.5q-156 -154 -194.5 -371.5t53.5 -413.5l205 209v-516h-508zM725 -193v519q157 49 299 49q139 0 310.5 -53t244.5 -142q119 156 140 350t-62 371 l-205 -207v510h510l-190 -190q89 -162 102.5 -346.5t-50.5 -359t-196 -306.5q-121 -121 -278.5 -184.5t-325.5 -63.5q-154 0 -299 53zM743 821q0 117 82 199t199 82t199 -82t82 -199q0 -116 -82 -198t-199 -82t-199 82t-82 198z" />
<glyph unicode="&#xfe;" d="M254 -256v1384q0 63 46 109.5t110 46.5h1226q64 0 110 -46.5t46 -109.5v-921q0 -64 -45.5 -109t-110.5 -45h-1075z" />
<glyph unicode="&#xff;" d="M209.5 804q4.5 16 21.5 17l551 47l215 506q6 15 22.5 15t22.5 -15l215 -506l551 -47q15 -2 21 -17t-6 -26l-418 -362l125 -539q3 -15 -10.5 -24.5t-26.5 -2.5l-473 287l-473 -287q-13 -7 -26.5 2.5t-10.5 24.5l125 539l-418 362q-12 10 -7.5 26zM299 774l371 -319l22 -21 l-6 -31l-113 -477l420 254l27 17l27 -17l419 -254l-112 477l-6 31l22 21l371 319l-488 43l-30 2l-13 29l-190 448l-191 -448l-12 -29l-31 -2z" />
<glyph unicode="&#x131;" d="M256 16v1196q0 69 50 119.5t120 50.5h1196q69 0 119.5 -50.5t50.5 -119.5v-1196q0 -70 -50.5 -120t-119.5 -50h-1196q-70 0 -120 50t-50 120zM430 954q0 -104 74 -178t178 -74t178 74t74 178t-74 178t-178 74t-178 -74t-74 -178zM569 954q0 46 33 79.5t80 33.5t80 -33.5 t33 -79.5q0 -47 -33 -80.5t-80 -33.5t-80 33.5t-33 80.5zM590 281l102 -105l770 772l-102 101zM1114 272q0 -104 74 -178t178 -74t178 74t74 178t-74 178t-178 74t-178 -74t-74 -178zM1251 272q0 46 34 79.5t81 33.5q46 0 79.5 -33.5t33.5 -79.5q0 -47 -33.5 -80.5 t-79.5 -33.5q-47 0 -81 33.5t-34 80.5z" />
<glyph unicode="&#x141;" d="M258 -45v426h342l340 342v270q-75 28 -122.5 94t-47.5 148q0 106 75 181t181 75t181 -75t75 -181q0 -82 -47.5 -148t-122.5 -94v-270l340 -342h342v-426h-426v260l-342 358l-342 -358v-260h-426z" />
<glyph unicode="&#x142;" d="M256 12h768v-170h-768v170zM256 268v172h1536v-172h-1536zM256 696v170h1536v-170h-1536zM256 1122v170h1536v-170h-1536z" />
<glyph unicode="&#x152;" d="M119 188l352 983h231l349 -983h-222l-65 203h-363l-67 -203h-215zM457 559h252l-123 389zM1130 381q0 135 105 194q58 36 168 48l65 8q48 5 76 16q41 18 41 55q0 45 -33 62q-32 16 -92 16q-71 0 -96 -32q-22 -29 -27 -68h-184q6 96 53 158q78 96 260 96q119 0 215 -47 q93 -50 93 -180v-334q0 -51 2 -84q0 -34 10 -51q11 -15 29 -21v-29h-207q-10 24 -13 41q-1 9 -6 45q-37 -43 -90 -73q-62 -35 -139 -35q-100 0 -164 55q-66 57 -66 160zM1321 395q0 -48 27 -69q30 -23 67 -23q63 0 115 37t55 131v72q-21 -14 -39 -19q-14 -7 -49 -14l-45 -8 q-61 -9 -86 -25q-45 -26 -45 -82z" />
<glyph unicode="&#x153;" d="M256 16v1196q0 69 50 119.5t120 50.5h86v170h170v-170h684v170h170v-170h86q69 0 119.5 -50.5t50.5 -119.5v-1196q0 -70 -50.5 -120t-119.5 -50h-1196q-70 0 -120 50t-50 120zM426 16h1196v940h-1196v-940zM598 358h426v426h-426v-426z" />
<glyph unicode="&#x160;" d="M256 16v1196q0 70 50 120t120 50h1196q70 0 120 -50t50 -120v-1196q0 -70 -50 -120t-120 -50h-1196q-70 0 -120 50t-50 120zM426 16h1196v1196h-1196v-1196zM612 776h838l-418 -418z" />
<glyph unicode="&#x161;" d="M256 16v1196q0 70 50 120t120 50h1196q70 0 120 -50t50 -120v-1196q0 -70 -50 -120t-120 -50h-1196q-70 0 -120 50t-50 120zM426 16h1196v1196h-1196v-1196zM631 614l121 121l182 -182l362 362l121 -120l-483 -482z" />
<glyph unicode="&#x178;" d="M-49 772v113q90 7 110 12q51 9 80 43q26 30 33 61q6 21 6 33h139v-844h-169v582h-199zM481 190q3 93 39 166q40 87 168 179q118 83 150 118q51 54 51 121q0 51 -29 88q-30 37 -86 37q-76 0 -102 -57q-16 -37 -19 -105h-161q3 107 38 176q67 125 236 125q136 0 215 -73 q78 -75 78 -197q0 -96 -55 -166q-36 -48 -121 -108l-68 -48q-60 -42 -84 -63q-25 -22 -39 -47h369v-146h-580zM1190 190v175h178v-175h-178zM1473 449h161q0 -45 17 -84q29 -60 110 -60q50 0 86 33q35 35 35 96q0 84 -67 111q-40 16 -121 16v119q77 0 114 16q54 25 54 99 q0 50 -27 77q-31 31 -80 31q-59 0 -86 -37q-27 -38 -27 -100h-155q3 69 22 121q17 46 64 90q35 30 78 47q41 14 110 14q122 0 195 -61q74 -65 74 -168q0 -76 -45 -127q-28 -31 -58 -43q21 0 66 -39q63 -57 63 -162t-74 -188q-77 -80 -221 -80q-181 0 -248 117 q-37 61 -40 162z" />
<glyph unicode="&#x17d;" d="M109 774v113q72 3 108 10q54 12 82 45q25 25 33 59q6 24 6 35h139v-846h-170v584h-198zM676 190q3 96 39 166q39 89 168 181q109 76 149 116q51 54 51 121q0 52 -30 90q-25 35 -84 35q-78 0 -105 -55q-15 -34 -18 -105h-162q6 111 41 174q65 127 236 127q134 0 213 -73 q79 -76 79 -199q0 -93 -55 -166q-31 -41 -121 -108l-67 -48q-35 -25 -86 -63q-23 -23 -39 -47h370v-146h-579zM1356 451h162q0 -47 16 -84q30 -62 111 -62q50 0 86 33t36 96q0 86 -67 113q-38 14 -121 14v119q83 3 113 16q55 24 55 101q0 45 -29 77q-28 31 -80 31 q-59 0 -86 -37q-29 -43 -26 -100h-156q3 67 23 119q17 46 63 92q36 32 78 45q46 16 111 16q122 0 194 -63q74 -62 74 -168q0 -76 -43 -125q-24 -31 -60 -45q24 0 66 -39q63 -57 63 -160q0 -108 -73 -190q-74 -80 -221 -80q-180 0 -248 117q-38 62 -41 164z" />
<glyph unicode="&#x17e;" d="M-86 870v684q0 70 50 120t120 50h684q71 0 121.5 -50t50.5 -120v-684q0 -70 -51 -121t-121 -51h-684q-70 0 -120 50.5t-50 121.5zM84 870h684v684h-684v-684zM170 1296h512l-256 -256zM342 145v383h170v-426h428v-172h-385q-89 0 -151 63t-62 152zM1110 -326v684 q0 70 50 120t120 50h684q70 0 120 -50t50 -120v-684q0 -70 -50 -120t-120 -50h-684q-70 0 -120 50t-50 120zM1280 -326h684v684h-684v-684zM1366 102h512l-256 -256z" />
<glyph unicode="&#x192;" d="M256 16h170v-170q-70 0 -120 50t-50 120zM256 188v170h170v-170h-170zM256 528v170h170v-170h-170zM256 870v170h170v-170h-170zM256 1212q0 70 50 120t120 50v-170h-170zM598 16h170v-170h-170v170zM598 1212v170h170v-170h-170zM938 16h170v-170h-170v170zM938 1212 v170h170v-170h-170zM1280 16h170v-170h-170v170zM1280 1212v170h170v-170h-170zM1622 16h170q0 -70 -50 -120t-120 -50v170zM1622 188v170h170v-170h-170zM1622 528v170h170v-170h-170zM1622 870v170h170v-170h-170zM1622 1212v170q70 0 120 -50t50 -120h-170z" />
<glyph unicode="&#x2c6;" d="M84 1126v170h598v172h172v-172h596v-170h-250q-93 -306 -315 -557l-4 -2l217 -215l-64 -174l-266 266l-426 -428l-123 121l434 430q-158 178 -254 389h172q77 -154 197 -286q182 203 270 456h-954zM1024 -240l385 1024h170l383 -1024h-170l-96 256h-406l-96 -256h-170z M1356 188h276l-139 369z" />
<glyph unicode="&#x2c7;" horiz-adv-x="1638" d="M51 16v1196q0 69 50 119.5t120 50.5h1196q69 0 119.5 -50.5t50.5 -119.5v-1196q0 -70 -50.5 -120t-119.5 -50h-1196q-71 0 -120.5 50t-49.5 120zM393 379q0 -44 31 -75.5t74 -31.5h407v172h-342v340h342v172h-407q-43 0 -74 -31t-31 -75v-471zM1075 272h170v684h-170 v-684z" />
<glyph unicode="&#x2d8;" horiz-adv-x="1638" d="M53 16v1196q0 70 49.5 120t120.5 50h1196q71 0 120.5 -50t49.5 -120v-1196q0 -70 -49.5 -120t-120.5 -50h-1196q-71 0 -120.5 50t-49.5 120zM309 379q0 -44 31 -75.5t74 -31.5h407v172h-342v340h342v172h-407q-43 0 -74 -31t-31 -75v-471zM907 784h170v-510h172v510h170 v172h-512v-172z" />
<glyph unicode="&#x2d9;" d="M170 913q0 97 36.5 183.5t99.5 149.5t149.5 99.5t183.5 36.5q111 0 213 -47.5t172 -130.5q70 82 172 130t211 48q97 0 184.5 -36.5t150.5 -99.5t99.5 -149.5t36.5 -183.5q0 -201 -164 -419q-114 -150 -380 -396q-57 -52 -187 -170l-123 -112l-123 112q-300 272 -411 387 q-217 226 -283 401q-37 98 -37 197z" />
<glyph unicode="&#x2da;" d="M170 911q0 97 36.5 183.5t99.5 149.5t149.5 99.5t183.5 36.5q111 0 213 -47.5t172 -130.5q70 82 172 130t211 48q97 0 184.5 -36.5t150.5 -99.5t99.5 -149.5t36.5 -183.5q0 -68 -18.5 -136t-48 -129t-82 -131.5t-106 -131t-136 -141t-154.5 -147t-178 -162.5q-7 -6 -8 -7 l-123 -112l-123 112q-300 272 -411 387q-217 226 -283 401q-37 98 -37 197zM342 911q0 -41 11 -84t26 -81t48.5 -87t60 -85.5t81 -94t90.5 -94t109 -105t116.5 -108t131.5 -119.5l8 -8l8 8q297 270 403 380q203 211 252 362q19 59 19 116q0 128 -85 213.5t-214 85.5 q-98 0 -183.5 -57t-119.5 -145h-160q-34 88 -119.5 145t-185.5 57q-127 0 -212 -85.5t-85 -213.5z" />
<glyph unicode="&#x2db;" d="M254 141v86h86v342h-86v86h86v344h-86v86h86v340q0 54 38 92.5t93 38.5h854h86h168q55 0 93 -38.5t38 -92.5v-1624q0 -54 -38 -92.5t-93 -38.5h-168h-86h-854q-55 0 -93 38.5t-38 92.5v340h-86zM426 141v-340q0 -19 13 -32t32 -13h854v1714h-854q-19 0 -32 -13t-13 -32 v-340h84v-86h-84v-344h84v-86h-84v-342h84v-86h-84zM1411 141v-385h168q20 0 33.5 13t13.5 32v340h-215zM1411 227h215v342h-215v-342zM1411 655h215v344h-215v-344z" />
<glyph unicode="&#x2dc;" d="M258 186v170h84v512h-84v170h84v254q0 72 50 123t122 51h934q72 0 123 -51t51 -123v-1360q0 -72 -51 -123t-123 -51h-934q-72 0 -122 51t-50 123v254h-84zM510 -68q0 -4 4 -4h631v1368h-631q-4 0 -4 -4v-254h88v-170h-88v-512h88v-170h-88v-254zM1280 -72h168q4 0 4 4 v445h-172v-449zM1280 506h172v448h-172v-448z" />
<glyph unicode="&#x2dd;" d="M256 16v1196q0 70 50 120t120 50h1196q70 0 120 -50t50 -120v-1196q0 -70 -50 -120t-120 -50h-1196q-70 0 -120 50t-50 120zM598 614q0 -177 124.5 -301.5t301.5 -124.5t301.5 124.5t124.5 301.5t-124.5 301.5t-301.5 124.5t-301.5 -124.5t-124.5 -301.5z" />
<glyph unicode="&#x3c0;" d="M256 16v1196q0 70 50 120t120 50h1196q70 0 120 -50t50 -120v-1196q0 -70 -50 -120t-120 -50h-1196q-70 0 -120 50t-50 120zM426 16h1196v1196h-1196v-1196zM598 188v340h340v-340h-340zM598 700v340h340v-340h-340zM1110 188v340h340v-340h-340zM1110 700v340h340v-340 h-340z" />
<glyph unicode="&#x2000;" horiz-adv-x="863" />
<glyph unicode="&#x2001;" horiz-adv-x="1726" />
<glyph unicode="&#x2002;" horiz-adv-x="863" />
<glyph unicode="&#x2003;" horiz-adv-x="1726" />
<glyph unicode="&#x2004;" horiz-adv-x="575" />
<glyph unicode="&#x2005;" horiz-adv-x="431" />
<glyph unicode="&#x2006;" horiz-adv-x="287" />
<glyph unicode="&#x2007;" horiz-adv-x="287" />
<glyph unicode="&#x2008;" horiz-adv-x="215" />
<glyph unicode="&#x2009;" horiz-adv-x="345" />
<glyph unicode="&#x200a;" horiz-adv-x="95" />
<glyph unicode="&#x2010;" d="M426 528v172h1196v-172h-1196z" />
<glyph unicode="&#x2011;" d="M426 528v172h1196v-172h-1196z" />
<glyph unicode="&#x2012;" d="M426 528v172h1196v-172h-1196z" />
<glyph unicode="&#x2013;" d="M426 860q0 122 47.5 232.5t127.5 190.5t190.5 127.5t232.5 47.5t232.5 -47.5t190.5 -127.5t127.5 -190.5t47.5 -232.5q0 -92 -33 -202.5t-85.5 -214.5t-116.5 -208t-128 -190t-116.5 -153t-85.5 -104l-33 -38q-12 14 -34 38.5t-84 102t-118.5 155.5t-125.5 188 t-118.5 210.5t-83.5 212t-34 203.5zM750 889q0 -114 80 -194.5t194 -80.5t194 80.5t80 194.5t-80 194t-194 80t-194 -80t-80 -194z" />
<glyph unicode="&#x2014;" d="M414 586l121 121l360 -363l723 723l119 -119l-842 -846z" />
<glyph unicode="&#x2018;" horiz-adv-x="2045" d="M195 365q3 15 14 24l180 141q-6 81 -6 84q0 13 1 27t2.5 30.5t2.5 26.5l-180 142q-11 9 -14 24t4 29l172 295q7 14 22 19.5t29 0.5l213 -86q69 51 143 84l33 226q2 15 14 25.5t29 10.5h340q17 0 28.5 -10t14.5 -26l33 -226q83 -38 143 -84l213 86q14 5 29 -0.5t22 -19.5 l170 -295q8 -13 5 -28.5t-15 -24.5l-178 -142q4 -58 4 -84q0 -30 -4 -84l178 -141q12 -9 15 -24.5t-5 -28.5l-170 -295q-7 -14 -22 -20t-29 -1l-213 86q-66 -48 -143 -83l-33 -226q-3 -16 -14.5 -26.5t-28.5 -10.5h-340q-17 0 -29 11t-14 26l-33 226q-86 39 -143 83 l-213 -86q-14 -5 -29 1t-22 20l-172 295q-7 14 -4 29zM725 614q0 -123 88 -211t211 -88t211 88t88 211t-88 211t-211 88t-211 -88t-88 -211z" />
<glyph unicode="&#x2019;" d="M340 80v364h514v-514h-365q-61 0 -105 44t-44 106zM340 528v172h172v-172h-172zM340 784v361q0 63 45.5 108t108.5 45h360v-514h-514zM512 102h170v170h-170v-170zM512 956h170v170h-170v-170zM768 528v172h342v-342h-172v170h-170zM938 -70v342h256v86h172v-256h-256 v-172h-172zM938 784v342h172v-342h-172zM1194 528v172h172v-172h-172zM1194 784v514h375q57 0 98 -41t41 -98v-375h-514zM1366 -70v172h170v-172h-170zM1366 358v170h170v-170h-170zM1366 956h170v170h-170v-170zM1536 102v256h172v-256h-172zM1536 528v172h172v-172h-172z " />
<glyph unicode="&#x201a;" d="M256 102v170h1536v-170h-1536zM256 528v172h1536v-172h-1536zM256 956v170h1536v-170h-1536z" />
<glyph unicode="&#x201c;" horiz-adv-x="2045" d="M854 102q0 70 50 120t120 50t120 -50t50 -120t-50 -120t-120 -50t-120 50t-50 120zM854 614q0 70 50 120t120 50t120 -50t50 -120t-50 -120t-120 -50t-120 50t-50 120zM854 1126q0 70 50 120t120 50t120 -50t50 -120t-50 -120t-120 -50t-120 50t-50 120z" />
<glyph unicode="&#x201d;" d="M-90 872v684q0 70 50 120t120 50h1857q71 0 120.5 -50t49.5 -120v-684q0 -71 -50 -121.5t-120 -50.5h-1857q-70 0 -120 50.5t-50 121.5zM80 872h1857v684h-1857v-684zM336 82v448h172v-426h262v177l262 -263l-262 -262v176h-285q-61 0 -105 44t-44 106zM1106 -324v684 q0 70 50 120t120 50h684q70 0 120 -50t50 -120v-684q0 -70 -50 -120t-120 -50h-684q-70 0 -120 50t-50 120zM1276 -324h684v684h-684v-684z" />
<glyph unicode="&#x201e;" d="M256 41v1147q0 80 57 137t138 57h1146q80 0 137.5 -57.5t57.5 -136.5v-1147q0 -81 -57.5 -138t-137.5 -57h-1146q-82 0 -138.5 56.5t-56.5 138.5zM512 356q0 -70 50 -120t120 -50v684h172v-194l381 280l-381 283v-199h-172q-70 0 -120 -49.5t-50 -118.5v-516zM815 272 l379 -282v196h166q72 0 124 52t52 124v510q0 69 -50 119.5t-120 50.5v-686h-172v197z" />
<glyph unicode="&#x2020;" d="M254 702q0 106 75 181t181 75h2h512v-512h-172l172 -428l-168 -84l-205 512h-139h-2q-106 0 -181 75t-75 181zM1198 446v512l596 426v-1366z" />
<glyph unicode="&#x2021;" d="M172 1296v170h279l79 -170h1260q35 0 60.5 -25.5t25.5 -60.5q0 -21 -10 -41l-305 -553q-22 -40 -62.5 -64t-87.5 -24h-635l-76 -137l-2 -10q0 -9 6 -16t15 -7h987v-170h-1022q-71 0 -121.5 50t-50.5 120q0 41 23 82l114 209l-307 647h-170zM514 -68q0 70 50 120t120 50 q69 0 119.5 -50t50.5 -120t-50.5 -120t-119.5 -50q-70 0 -120 50t-50 120zM1366 -68q0 70 50 120t120 50q69 0 119.5 -50t50.5 -120t-50.5 -120t-119.5 -50q-70 0 -120 50t-50 120z" />
<glyph unicode="&#x2022;" d="M254 184v598q0 119 72.5 211.5t183.5 120.5v53q0 89 63 151t152 62q88 0 150.5 -62t62.5 -151v-43h172v43q0 89 62.5 152t150.5 63q89 0 152 -63t63 -152v-53q112 -30 184 -121.5t72 -210.5v-598q0 -141 -100.5 -241.5t-241.5 -100.5q-142 0 -242 100.5t-100 241.5v172v5 t-2 12.5t-5 18t-9.5 19t-15 18t-22.5 12.5t-32 5q-38 0 -59.5 -22.5t-24.5 -45.5l-2 -22v-172q0 -141 -100.5 -241.5t-241.5 -100.5t-241.5 100.5t-100.5 241.5zM393 184q0 -85 59 -143.5t144 -58.5t144 58.5t59 143.5t-59 144t-144 59t-144 -59t-59 -144zM1247 184 q0 -84 60 -143t145 -59q84 0 143.5 59t59.5 143t-59.5 143.5t-143.5 59.5q-85 0 -145 -59t-60 -144z" />
<glyph unicode="&#x2026;" d="M256 16v1196q0 69 50 119.5t120 50.5h1196q69 0 119.5 -50.5t50.5 -119.5v-1196q0 -70 -50.5 -120t-119.5 -50h-1196q-70 0 -120 50t-50 120zM449 616q0 -120 83.5 -204t202.5 -84q120 0 204.5 84t84.5 204q0 -120 84 -204t203 -84q120 0 204 84t84 204q0 119 -84 203 t-204 84q-119 0 -203 -84.5t-84 -202.5q0 119 -84.5 203t-204.5 84q-118 0 -202 -84t-84 -203z" />
<glyph unicode="&#x202f;" horiz-adv-x="345" />
<glyph unicode="&#x2030;" d="M342 -68v852q0 72 49.5 122t120.5 50h86v170q0 177 124.5 301.5t301.5 124.5t301.5 -124.5t124.5 -301.5v-170h86q70 0 120 -50.5t50 -121.5v-852q0 -71 -50 -121.5t-120 -50.5h-1024q-70 0 -120 50.5t-50 121.5zM768 956h512v170q0 106 -75 181t-181 75t-181 -75 t-75 -181v-170zM854 358q0 -70 50 -120t120 -50t120 50t50 120t-50 120t-120 50t-120 -50t-50 -120z" />
<glyph unicode="&#x2039;" d="M172 -66v170q0 65 49 122.5t125.5 96.5t169.5 67.5t180 42t158 13.5t158 -13.5t180 -42t169.5 -67.5t125.5 -96.5t49 -122.5v-170h-1364zM512 956q0 141 100.5 241.5t241.5 100.5t240.5 -100.5t99.5 -241.5t-99.5 -240.5t-240.5 -99.5t-241.5 99.5t-100.5 240.5z M1364 780l248 21l94 225l96 -225l244 -21l-184 -159l57 -240l-213 127l-209 -127l55 240z" />
<glyph unicode="&#x203a;" d="M86 -70v172q0 65 49 122t125.5 96t169.5 67.5t180 41.5t158 13q182 0 377 -67q-121 -158 -121 -359q0 -42 6 -86h-944zM426 954q0 141 100.5 241.5t241.5 100.5t241.5 -100.5t100.5 -241.5t-100.5 -240.5t-241.5 -99.5t-241.5 99.5t-100.5 240.5zM1206 -123q-8 16 6 27 l91 69q-3 21 -3 43t3 43l-91 70q-14 11 -6 27l86 147q6 12 27 12l106 -43q20 16 72 41l16 113q3 16 23 16h170q17 0 20 -16l17 -113q28 -10 72 -41l104 43q23 0 29 -12l84 -147q4 -6 3 -14t-7 -13l-91 -70q2 -14 2 -43q0 -7 -1 -21.5t-1 -21.5l91 -69q14 -11 6 -27l-86 -147 q-6 -13 -29 -13l-104 43q-55 -33 -72 -41l-17 -110q-4 -19 -20 -19h-170q-19 0 -23 19l-16 110q-29 11 -72 41l-106 -43q-21 0 -27 13zM1493 16q0 -54 36.5 -90.5t90.5 -36.5t91.5 37t37.5 90q0 54 -37.5 91.5t-91.5 37.5q-53 0 -90 -37.5t-37 -91.5z" />
<glyph unicode="&#x2044;" d="M256 -154v1194h512v172l256 256l256 -256v-512h512v-854h-1536zM426 16h172v172h-172v-172zM426 358h172v170h-172v-170zM426 700h172v170h-172v-170zM938 16h172v172h-172v-172zM938 358h172v170h-172v-170zM938 700h172v170h-172v-170zM938 1040h172v172h-172v-172z M1450 16h172v172h-172v-172zM1450 358h172v170h-172v-170z" />
<glyph unicode="&#x205f;" horiz-adv-x="431" />
<glyph unicode="&#x20ac;" d="M256 16h1536v-170h-1536v170zM256 956v170l768 342l768 -342v-170h-1536zM426 188v596h172v-596h-172zM768 188v596h170v-596h-170zM1110 188v596h170v-596h-170zM1450 188v596h172v-596h-172z" />
<glyph unicode="&#x2122;" horiz-adv-x="4096" />
<glyph unicode="&#x2126;" d="M426 872q0 122 47.5 232.5t127.5 190.5t190.5 127.5t232.5 47.5t232.5 -47.5t190.5 -127.5t127.5 -190.5t47.5 -232.5q0 -149 -69 -277t-187 -212v-193q0 -35 -25.5 -60.5t-60.5 -25.5h-512q-35 0 -60.5 25.5t-25.5 60.5v193q-118 84 -187 212t-69 277zM598 872 q0 -105 48 -197.5t134 -152.5l74 -51v-197h340v197l74 51q86 60 134 152.5t48 197.5q0 177 -124.5 301.5t-301.5 124.5t-301.5 -124.5t-124.5 -301.5zM768 -66h512v-86q0 -35 -25.5 -60.5t-60.5 -25.5h-340q-35 0 -60.5 25.5t-25.5 60.5v86z" />
<glyph unicode="&#x2202;" d="M86 231v512q0 71 50 121.5t120 50.5h248h176v256l342 -342l-342 -340v256h-424v-516h1536v516h-512v170h512q70 0 120 -50.5t50 -121.5v-512q0 -71 -50 -120.5t-120 -49.5h-1536q-70 0 -120 49.5t-50 120.5z" />
<glyph unicode="&#x25fc;" horiz-adv-x="1300" d="M0 0v1300h1300v-1300h-1300z" />
<glyph unicode="&#xf8ff;" horiz-adv-x="0" />
<glyph />
</font>
</defs>
</svg>
